<svg id="Layer_1" data-name="Layer 1" xmlns="http://www.w3.org/2000/svg" viewBox="0 0 800 250"><defs><style>.cls-1{fill:#b59fed;}.cls-2{fill:#1c1c1c;}.cls-3{fill:#fc47b3;}.cls-4{fill:#cef559;}</style></defs><title>Artboard 3</title><path class="cls-1" d="M57.45,245.4c-2.35,0-4.45-1.64-7.23-5.65-2-3.1-3-6.08-1.28-10.62,2-5.51.06-8.8-5.8-18.59L42.22,209l-1-1.6c-4.42-7.35-6.65-11-10.91-11l-.73,0c-.71,0-1.33.08-1.91.08-2.63,0-4.44-.66-7-4.28-4.3-6-3.37-10.14,3.8-17.07,2.15-2.07,4.83-4.45,7.66-7,3.48-3.1,7.08-6.31,10-9.25,3.39-3.34,5.45-5.56,7.11-7.35a82.62,82.62,0,0,1,5.93-6c2.62-2.39,4.61-3.41,6.64-3.41,2.49,0,4.92,1.43,9.12,4.44,9.31,6.69,12.88,9.7,7.86,17-2.62,3.63-4.54,5.47-7.75,5.47A21.12,21.12,0,0,1,65.25,168a14.17,14.17,0,0,0-4.1-.81c-2.33,0-4,1.21-7.77,4.86-4.63,4.47-4,5.61-1.13,11.07,1.16,2.34,2.07,4.16,3.13,4.16a3.05,3.05,0,0,0,1.75-.91c1.51-1.36,1.29-2,.53-4l-.38-1c-.72-2.16-1.11-4.15,1.5-6.67a7.32,7.32,0,0,1,5.06-2.35c1.91,0,3.82.89,6,2.81,5.56,5,8.38,9.7,8.4,13.85a9.62,9.62,0,0,1-3.46,7.22,5.25,5.25,0,0,1-3.54,1.66,7.16,7.16,0,0,1-3.6-1.27,5.62,5.62,0,0,0-2.89-1.05,3.3,3.3,0,0,0-2.25,1c-2.14,1.94-1.56,3.63,1.7,8.86,1.75,2.76,3.13,3.93,4.61,3.93s3-1,5.38-3.25c6.07-5.87,7.78-8.86,6.6-16.15-.08-.55-.16-1-.24-1.47-.49-2.94-.69-4.16,2.32-6.8s5.27-3.74,7.38-3.74c3.47,0,6.35,3.19,9.07,10,.63,1.6,1.26,3.05,1.8,4.33,2.76,6.41,4.27,9.94-.86,14.9-3.72,3.58-6.53,5.87-9.26,8.08-2.51,2-4.88,4-7.77,6.76-1.81,1.75-4.27,4.35-7.39,7.63-2.93,3.1-6.58,6.94-10.64,11.08C61.9,244,59.59,245.4,57.45,245.4Z"/><path class="cls-2" d="M61.83,142.75c2.39,0,4.91,1.55,8.79,4.33,9.44,6.79,12.41,9.41,7.73,16.24-2.71,3.75-4.47,5.22-7.29,5.22a21.18,21.18,0,0,1-5.65-1.11,14.68,14.68,0,0,0-4.26-.84c-2.6,0-4.46,1.45-8.16,5-4.86,4.69-4.23,6.1-1.24,11.74,1.3,2.61,2.21,4.45,3.63,4.45a3.45,3.45,0,0,0,2.12-1c2.09-1.88,1.3-2.85.32-5.66-.7-2.07-1-3.77,1.35-6.08a6.72,6.72,0,0,1,4.67-2.19c2,0,3.94,1.19,5.62,2.67,7,6.37,11.66,14,4.93,20.23a4.72,4.72,0,0,1-3.16,1.52,6.75,6.75,0,0,1-3.31-1.19,6.16,6.16,0,0,0-3.18-1.14A3.85,3.85,0,0,0,62.11,196c-2.54,2.3-1.55,4.53,1.6,9.58,1.77,2.79,3.3,4.2,5.09,4.2,1.6,0,3.4-1.13,5.77-3.42,6.28-6.06,8-9.27,6.76-16.64-.59-4-1.3-4.95,1.91-7.76,2.57-2.24,4.87-3.59,7-3.59,3.07,0,5.81,2.78,8.55,9.68,3.79,9.62,6.9,13,1.06,18.61-7.1,6.86-11,9-17,14.84-3.59,3.47-9.81,10.34-18,18.72-3,3.05-5.27,4.57-7.33,4.57-2.25,0-4.26-1.8-6.77-5.4-2.07-3.2-2.76-6-1.21-10.1,2.23-6.06-.2-9.63-6.77-20.63-5.09-8.4-7.46-12.91-12.37-12.91a7,7,0,0,0-.78,0c-.68,0-1.3.07-1.86.07-2.51,0-4.14-.65-6.6-4-4.16-5.81-3.21-9.62,3.75-16.33,4.78-4.62,12.32-10.88,17.71-16.23,7.18-7.07,8.24-9,13-13.29,2.45-2.23,4.31-3.26,6.26-3.26m0-1.13c-2.19,0-4.29,1.06-7,3.55-2.55,2.31-4.06,3.94-6,6-1.65,1.78-3.71,4-7.09,7.33-3,2.93-6.55,6.13-10,9.23-2.83,2.52-5.51,4.9-7.67,7-7.44,7.18-8.38,11.5-3.88,17.79,2.75,3.8,4.76,4.52,7.52,4.52.62,0,1.3,0,1.93-.07a6.08,6.08,0,0,1,.71,0c4,0,6.11,3.6,10.43,10.76l1,1.61.92,1.54c5.76,9.61,7.7,12.85,5.76,18.11-1.54,4.06-1.15,7.28,1.33,11.1,2.92,4.22,5.15,5.92,7.71,5.92,2.3,0,4.74-1.46,8.14-4.9,4.06-4.14,7.71-8,10.64-11.08,3.12-3.28,5.58-5.88,7.38-7.62,2.88-2.78,5.24-4.7,7.74-6.73,2.73-2.22,5.56-4.52,9.29-8.11,5.42-5.23,3.75-9.11,1-15.54-.54-1.27-1.16-2.71-1.79-4.31C97,180.58,94,177.28,90.25,177.28c-2.27,0-4.73,1.23-7.76,3.87s-3,4.14-2.5,7.33c.07.43.15.91.23,1.44,1.14,7.06-.52,10-6.43,15.67-2.19,2.11-3.78,3.1-5,3.1s-2.52-1.14-4.14-3.68c-3.27-5.24-3.55-6.54-1.79-8.14a2.79,2.79,0,0,1,1.87-.81,5.13,5.13,0,0,1,2.58,1,7.68,7.68,0,0,0,3.91,1.37,5.77,5.77,0,0,0,3.92-1.81,10.16,10.16,0,0,0,3.64-7.64c0-4.31-2.9-9.11-8.57-14.27-2.3-2-4.32-3-6.38-3a7.88,7.88,0,0,0-5.45,2.51c-2.85,2.75-2.4,5-1.64,7.25.13.4.26.75.38,1.07.75,2,.85,2.28-.39,3.39-.76.65-1.18.75-1.36.75-.71,0-1.68-1.94-2.61-3.81-2.88-5.44-3.32-6.27,1-10.44,3.66-3.53,5.24-4.71,7.38-4.71a13.78,13.78,0,0,1,3.93.79,21.93,21.93,0,0,0,6,1.16c3.44,0,5.54-2,8.2-5.69,5.32-7.76,1.4-11.07-8-17.81-4.3-3.09-6.81-4.55-9.45-4.55Z"/><path class="cls-1" d="M111.37,191.7c-2.85,0-5.08-1.55-7-4.88a12,12,0,0,1-.22-11.63c3-5.75.68-12.61-.46-15.29-.71-1.67-1.31-1.86-1.7-1.86a2.66,2.66,0,0,0-1.34.51l-1.92,1.24a4.75,4.75,0,0,1-2.54.78c-1.27,0-3.6-.62-5-4.72-2.4-7.8-.89-18.2,6.66-23a11.67,11.67,0,0,1,6.25-2.18,8,8,0,0,1,3.83,1,16.34,16.34,0,0,1,2.42,1.65,4.09,4.09,0,0,0,1.65,1,.35.35,0,0,0,.21-.07c1-.61,1.18-1.92,1.51-3.9.15-.9.33-1.92.6-3.06,1.17-4.92,4-8.64,8.76-11.72a13.46,13.46,0,0,1,7.23-2.46,10.55,10.55,0,0,1,5.16,1.42,18.21,18.21,0,0,1,2,1.47c.65.52,1.16.94,1.56.94a.89.89,0,0,0,.48-.17c.9-.58,1.06-1.5,1.41-3.54.19-1,.42-2.37.83-4,.9-3,2.63-6.93,8.1-10.43A19,19,0,0,1,160,95.51a13.32,13.32,0,0,1,11.47,6.43c3.36,5.27,3.07,11.49,2.83,16.48q0,1-.09,1.89c-.1,4.07,0,6.42,1,8a2.18,2.18,0,0,0,1.76,1.15,2.3,2.3,0,0,0,1.25-.42,6,6,0,0,0,1.62-1.48,5.45,5.45,0,0,1,1.4-1.32,2.83,2.83,0,0,1,1.49-.47c1.43,0,2.43,1.31,3.07,2.3,4.44,6.95,2.87,18.09-7.46,24.7a17.49,17.49,0,0,1-9.35,3.12c-4.26,0-8-2.24-10.64-6.31-3.18-5-3.21-10.34-3.24-15.07,0-3.32-.08-6.52-1.81-9.22a2.72,2.72,0,0,0-2.32-1.43,3.72,3.72,0,0,0-1.95.64,4.69,4.69,0,0,0-2,2.62c-.81,2.66,0,6.52.77,9.93a22.51,22.51,0,0,0,4.08,8.82,22.88,22.88,0,0,0,2.52,2.71,14.56,14.56,0,0,1,3.12,3.79c3.29,5.56,3.22,10.05-6.89,16.52-5,3.18-8.38,4.6-11,4.6-3.46,0-5.4-2.46-7-5.11-2.22-3.88-2.21-7.3-2.19-10.92.39-6.37.11-11.42-2.47-15.46a3.09,3.09,0,0,0-2.51-1.72,3.74,3.74,0,0,0-1.94.67,5,5,0,0,0-2.07,3c-1.18,3.42-.28,8.39.15,10.37a23.05,23.05,0,0,0,2.66,6.59,21.44,21.44,0,0,0,3.11,3.68,19.44,19.44,0,0,1,3.16,3.8c4.16,6.92,1.69,12.41-8.54,19C117.29,190.35,114,191.69,111.37,191.7Z"/><path class="cls-2" d="M160,96.08a12.79,12.79,0,0,1,11,6.17c3.7,5.78,2.85,12.74,2.66,18-.11,4.27,0,6.64,1.11,8.3A2.7,2.7,0,0,0,177,130a2.89,2.89,0,0,0,1.55-.5c1.75-1.12,1.71-2,3-2.8a2.23,2.23,0,0,1,1.19-.39c1,0,1.85.89,2.59,2.05,4,6.21,3.14,17.24-7.28,23.91a17,17,0,0,1-9,3c-4.21,0-7.72-2.23-10.16-6-3.08-4.82-3.13-10.1-3.15-14.77,0-3.23-.05-6.63-1.9-9.52a3.26,3.26,0,0,0-2.8-1.69,4.23,4.23,0,0,0-2.26.73,5.33,5.33,0,0,0-2.22,2.9c-.83,2.75-.09,6.6.76,10.25a23.08,23.08,0,0,0,4.19,9.05c2.17,2.8,4,3.5,5.59,6.42,3.07,5.19,3.37,9.32-6.7,15.76-4.85,3.11-8.19,4.52-10.73,4.52-2.82,0-4.66-1.74-6.51-4.84-2.07-3.62-2.12-6.79-2.11-10.63.38-6.16.19-11.47-2.56-15.76a3.56,3.56,0,0,0-3-2,4.23,4.23,0,0,0-2.24.76,5.5,5.5,0,0,0-2.31,3.33c-1,3-.57,7.4.14,10.64a23.55,23.55,0,0,0,2.73,6.77c2.07,3.24,4.44,4.44,6.26,7.47,3.92,6.51,1.8,11.69-8.36,18.19-4.3,2.75-7.62,4.27-10.33,4.27s-4.7-1.44-6.53-4.59a11.48,11.48,0,0,1-.19-11.11c2.6-5,1.47-11.19-.46-15.75-.64-1.51-1.34-2.2-2.22-2.2a3.1,3.1,0,0,0-1.64.6l-1.93,1.23a4.19,4.19,0,0,1-2.23.69c-1.63,0-3.36-1.12-4.42-4.33-2.42-7.83-.67-17.84,6.42-22.37a11.22,11.22,0,0,1,6-2.1,7.29,7.29,0,0,1,3.56,1c2.07,1.09,3.31,2.72,4.34,2.72a1,1,0,0,0,.51-.15c1.67-1.07,1.45-3.52,2.36-7.31,1-4.22,3.27-8,8.52-11.38a12.86,12.86,0,0,1,6.93-2.36,9.94,9.94,0,0,1,4.88,1.35c2,1.21,2.85,2.48,3.85,2.48a1.42,1.42,0,0,0,.78-.26c1.67-1.07,1.27-3,2.49-7.89.86-2.89,2.51-6.67,7.86-10.09a18.28,18.28,0,0,1,9.8-3.18M160,95a19.59,19.59,0,0,0-10.41,3.36c-5.63,3.61-7.41,7.62-8.34,10.72-.43,1.71-.66,3-.84,4.09-.36,2.07-.51,2.74-1.17,3.17a.61.61,0,0,1-.17.08,4.51,4.51,0,0,1-1.2-.82,20.86,20.86,0,0,0-2.05-1.5h0a11.1,11.1,0,0,0-5.43-1.49,14,14,0,0,0-7.54,2.54c-4.94,3.17-7.81,7-9,12.07-.28,1.16-.45,2.19-.61,3.1-.33,1.95-.53,3-1.21,3.48a7.63,7.63,0,0,1-1.26-.87,16.83,16.83,0,0,0-2.5-1.71,8.48,8.48,0,0,0-4.09-1.08,12.33,12.33,0,0,0-6.56,2.27c-7.78,5-9.36,15.67-6.89,23.66,1.48,4.47,4.08,5.13,5.5,5.13a5.28,5.28,0,0,0,2.84-.87l1.93-1.23a2,2,0,0,1,1-.42c.46,0,.94.95,1.18,1.51,1.11,2.61,3.37,9.27.49,14.79a12.7,12.7,0,0,0,.21,12.16c2.06,3.55,4.45,5.19,7.52,5.19,2.79,0,6.07-1.33,10.94-4.45,10.56-6.76,13.09-12.47,8.72-19.72a19.7,19.7,0,0,0-3.24-3.91,20.42,20.42,0,0,1-3-3.59,22.35,22.35,0,0,1-2.58-6.44c-.88-4-1-7.74-.18-10l0,0v0a4.39,4.39,0,0,1,1.83-2.68,3.08,3.08,0,0,1,1.63-.58c.27,0,1.1,0,2,1.46,2.5,3.91,2.76,8.86,2.39,15.08v.07c0,3.54,0,7.19,2.26,11.19,1.61,2.68,3.74,5.41,7.49,5.41,2.77,0,6.26-1.45,11.34-4.7,10.49-6.71,10.53-11.42,7.06-17.29a15.07,15.07,0,0,0-3.21-3.9,22.23,22.23,0,0,1-2.46-2.63,21.91,21.91,0,0,1-4-8.64c-.83-3.55-1.5-7.18-.78-9.62a4.18,4.18,0,0,1,1.75-2.3,3.12,3.12,0,0,1,1.65-.55,2.18,2.18,0,0,1,1.85,1.17c1.64,2.56,1.75,5.67,1.72,8.9,0,4.82.06,10.27,3.33,15.39,2.71,4.23,6.65,6.56,11.11,6.56a18.07,18.07,0,0,0,9.66-3.21c10.62-6.8,12.22-18.29,7.62-25.47-.7-1.1-1.84-2.57-3.54-2.57a3.28,3.28,0,0,0-1.79.57,6,6,0,0,0-1.54,1.43,5.48,5.48,0,0,1-1.49,1.37,1.79,1.79,0,0,1-.94.32,1.66,1.66,0,0,1-1.29-.89c-.91-1.44-1-3.71-.93-7.66,0-.59.05-1.22.08-1.87.24-5.08.55-11.39-2.92-16.81A13.82,13.82,0,0,0,160,95Z"/><path class="cls-1" d="M224.73,129.67c-6.15,0-10.86-3.79-12.93-10.41-1.78-5.81-1.25-12.85,1.57-20.94.93-2.41.59-3.19.46-3.37a.59.59,0,0,0-.56-.24,2.93,2.93,0,0,0-.94.21,10.36,10.36,0,0,1-1,.32c-.28.08-.57.16-.89.28a4.79,4.79,0,0,1-1.76.35c-2.46,0-4-2.24-4.17-6,0-8.37,9.29-18.25,17.35-21.19a17.07,17.07,0,0,1,5.74-1.12c4.69,0,8,2.74,9.16,7.51,1.3,3.79.26,7.07-1.06,11.22a53.37,53.37,0,0,0-2.3,9.48c-.56,4-.78,5.69,0,7.72.18.46.48,1,.92,1h.16a4.89,4.89,0,0,0,2.11-1.06,5.67,5.67,0,0,1,1.33-.8,3.14,3.14,0,0,1,1.13-.22c2.28,0,3.35,2.84,3.7,3.77a16.16,16.16,0,0,1-.61,12.41c-1.49,3.22-4.68,7.55-11.44,10A17.49,17.49,0,0,1,224.73,129.67ZM216.94,67.8c-3.77,0-6.3-1.74-7.52-5.17-2.08-5.82,1.9-14.21,13.37-18.31a18.87,18.87,0,0,1,6.27-1.27,7.7,7.7,0,0,1,7.79,5.46,11,11,0,0,1-.13,8.65c-1.76,3.73-6,6.82-12.53,9.17A22.62,22.62,0,0,1,216.94,67.8Z"/><path class="cls-2" d="M229.06,43.61a7.11,7.11,0,0,1,7.26,5.09c2.36,6.56-.29,12.78-12.32,17.1a22.35,22.35,0,0,1-7.06,1.44c-3.42,0-5.8-1.47-7-4.8-2-5.48,2-13.63,13-17.59a18.17,18.17,0,0,1,6.08-1.24m-1.47,24.51c4.43,0,7.53,2.48,8.62,7.07,2.08,6.1-2.11,10.91-3.37,20.5-.57,4.1-.79,5.85,0,8,.35.93.86,1.38,1.45,1.38a1.43,1.43,0,0,0,.29,0c1.66-.3,2.44-1.48,3.51-1.88A2.53,2.53,0,0,1,239,103c1.5,0,2.47,1.54,3.18,3.41,2.75,7.3-.56,17.66-11.72,21.65a16.83,16.83,0,0,1-5.76,1.08c-5.74,0-10.36-3.52-12.39-10-1.92-6.27-.89-13.55,1.56-20.59,1.17-3,.7-4.35-.63-4.35a3.1,3.1,0,0,0-1.14.25c-.69.25-1.21.34-1.89.6a4.45,4.45,0,0,1-1.56.31c-2.23,0-3.48-2.22-3.61-5.47,0-7.77,8.68-17.62,17-20.64a16.35,16.35,0,0,1,5.53-1.08m1.47-25.64h0a19.36,19.36,0,0,0-6.47,1.31c-11.81,4.22-15.88,13-13.71,19,1.32,3.68,4,5.55,8.06,5.55a23.17,23.17,0,0,0,7.43-1.5c6.71-2.41,11-5.6,12.86-9.47a11.49,11.49,0,0,0,.15-9.08,8.22,8.22,0,0,0-8.32-5.84ZM227.59,67a17.39,17.39,0,0,0-5.92,1.15c-8.24,3-17.78,13.13-17.73,21.7.16,4.09,2,6.6,4.74,6.6a5.51,5.51,0,0,0,2-.39c.3-.11.57-.19.86-.27s.64-.18,1-.33a2.27,2.27,0,0,1,.75-.17h.13s.29.62-.55,2.81c-2.88,8.24-3.41,15.4-1.59,21.33,2.15,6.87,7.06,10.8,13.47,10.8a17.88,17.88,0,0,0,6.15-1.15,20.08,20.08,0,0,0,11.75-10.26,16.73,16.73,0,0,0,.63-12.85c-.38-1-1.56-4.14-4.23-4.14a3.78,3.78,0,0,0-1.33.26,5.79,5.79,0,0,0-1.47.88,4.32,4.32,0,0,1-1.84,1h-.09a1.4,1.4,0,0,1-.39-.65c-.68-1.81-.53-3.23.05-7.44a52.13,52.13,0,0,1,2.28-9.39c1.29-4.06,2.4-7.57,1.06-11.57-1.21-5-4.75-7.89-9.71-7.89Z"/><path class="cls-1" d="M255.65,117.23c-5.1,0-7.94-2.33-8.94-7.34-.79-4.16.29-7.63,3.39-10.91,4.57-4.45,4.79-10.86,4.51-14.28-.11-2.76-1-2.76-1.41-2.76a3.11,3.11,0,0,0-.69.09c-.34.08-.7.2-1.07.31s-.77.24-1.13.33a6.1,6.1,0,0,1-1.44.18,4,4,0,0,1-2.94-1.15c-1-1-1.54-2.76-1.5-5.07.25-8.76,6.3-18.93,14.89-20.09a18.5,18.5,0,0,1,2.13-.13,8.48,8.48,0,0,1,6.62,2.66,18.36,18.36,0,0,1,1.5,2.11c.55.87,1.07,1.69,1.49,1.69h.11c1.27-.31,2.1-1.64,3.35-3.65.37-.59.76-1.23,1.22-1.91a19.51,19.51,0,0,1,12-8.42,22.59,22.59,0,0,1,5.34-.68c7.23,0,12.52,4,14.16,10.75,1.46,6-.7,11.61-2.61,16.53-.23.58-.45,1.15-.66,1.7-1.45,3.89-1.85,6-1.44,7.73a2.06,2.06,0,0,0,2,1.86,2.75,2.75,0,0,0,.67-.09,6.35,6.35,0,0,0,1.84-.87,6.64,6.64,0,0,1,1.9-.89,2.86,2.86,0,0,1,.7-.09c1,0,2.36.59,3,3.4a16,16,0,0,1-2.15,12c-1.86,3-5.57,7-12.65,8.72a20.42,20.42,0,0,1-4.81.62c-6.26,0-10.71-3.57-12.22-9.79-1.42-5.82,0-10.74,1.21-15.07l.18-.64c1.05-3.25,1.78-6,.9-9.66a2.48,2.48,0,0,0-2.43-2,2.6,2.6,0,0,0-.56.06c-2.08.51-3.12,1.37-4.27,3.52a25.49,25.49,0,0,0-2.32,8.5,21.72,21.72,0,0,0,.37,7.53,16.79,16.79,0,0,0,1.7,4.36,17.17,17.17,0,0,1,1.82,4.87c1.63,7.66-2.48,12-14.21,14.8A33,33,0,0,1,255.65,117.23Z"/><path class="cls-2" d="M293.12,48.76c7.13,0,12.09,4.07,13.61,10.32,1.59,6.57-1.3,12.72-3.25,17.9C302,81,301.57,83.22,302,85a2.58,2.58,0,0,0,2.51,2.29,3.3,3.3,0,0,0,.8-.1c1.51-.37,2.43-1.44,3.74-1.76a2.34,2.34,0,0,1,.57-.07c1.27,0,2.06,1.19,2.49,3,1.72,7.07-2.46,17.18-14.38,20.07a19.8,19.8,0,0,1-4.68.61c-6.4,0-10.33-3.83-11.67-9.36-1.45-6,.12-10.94,1.39-15.42,1-3,1.85-6,.89-10a3,3,0,0,0-3-2.4A2.61,2.61,0,0,0,280,72c-2.22.54-3.39,1.46-4.64,3.8a26,26,0,0,0-2.38,8.7,22.4,22.4,0,0,0,.38,7.72c.78,3.66,2.84,5.52,3.52,9.2,1.51,7.12-2.07,11.31-13.79,14.15a32.39,32.39,0,0,1-7.45,1.1c-4.6,0-7.41-1.91-8.39-6.88-.78-4.09.35-7.35,3.24-10.41,4.24-4.13,5-10.1,4.67-14.72-.1-2.23-.66-3.28-2-3.28a3.8,3.8,0,0,0-.83.11c-.7.17-1.49.47-2.19.64a5.81,5.81,0,0,1-1.31.17c-2,0-4-1.25-3.88-5.65.27-9,6.43-18.46,14.4-19.54a17.24,17.24,0,0,1,2.06-.13,8,8,0,0,1,6.22,2.5c1.55,1.83,2.23,4,3.39,4a1,1,0,0,0,.24,0c1.92-.47,2.87-2.73,4.91-5.8a18.94,18.94,0,0,1,11.7-8.19,22.46,22.46,0,0,1,5.21-.66m0-1.13a23.33,23.33,0,0,0-5.48.7A20,20,0,0,0,275.29,57c-.48.72-.89,1.38-1.25,2-1.16,1.86-1.93,3.09-3,3.37a6.58,6.58,0,0,1-1-1.41,19.88,19.88,0,0,0-1.51-2.14l0,0,0,0a9.11,9.11,0,0,0-7-2.83,19.2,19.2,0,0,0-2.18.14c-8.9,1.2-15.14,11.64-15.41,20.63,0,2.48.52,4.32,1.67,5.48a4.54,4.54,0,0,0,3.34,1.33,6.63,6.63,0,0,0,1.57-.2c.39-.09.79-.22,1.17-.34s.71-.22,1-.3a2.67,2.67,0,0,1,.56-.08c.25,0,.76,0,.85,2.2.27,3.37.06,9.58-4.32,13.86-3.28,3.46-4.4,7.08-3.57,11.44,1,5.24,4.15,7.79,9.5,7.79a33.67,33.67,0,0,0,7.72-1.13c11.94-2.9,16.31-7.53,14.62-15.48a17.48,17.48,0,0,0-1.87-5A16.5,16.5,0,0,1,274.48,92a21.31,21.31,0,0,1-.36-7.36,25.19,25.19,0,0,1,2.27-8.33c1.08-2,1.95-2.73,3.9-3.21a1.86,1.86,0,0,1,.42,0,1.93,1.93,0,0,1,1.88,1.54c.85,3.51.14,6.2-.88,9.34l-.19.67c-1.25,4.41-2.67,9.4-1.22,15.36,1.58,6.5,6.23,10.23,12.77,10.23a21.15,21.15,0,0,0,4.95-.64c7.26-1.76,11.08-5.85,13-9a16.62,16.62,0,0,0,2.21-12.46c-.77-3.17-2.38-3.83-3.59-3.83a3.42,3.42,0,0,0-.83.1,6.86,6.86,0,0,0-2.06,1,5.57,5.57,0,0,1-1.69.8,2.09,2.09,0,0,1-.53.07c-.27,0-1.07,0-1.42-1.42s0-3.63,1.43-7.4l.65-1.69c1.94-5,4.14-10.67,2.64-16.88-1.68-6.89-7.31-11.18-14.71-11.18Z"/><path class="cls-1" d="M368.66,99c-7.27,0-11.94-.54-14.27-3.28-1.42-1.67-1.84-4.12-1.29-7.49.77-3.78,1.78-7.07,6.31-9.15,3.32-1.73,5.48-3.14,7.52-9.87,1.58-5.29,4.14-15.21,5.38-20l.39-1.5c.43-1.54.43-2.55,0-3.09s-1.42-.82-3.22-.82h-.38c-3.26.06-3.82,1.39-5.46,5.33l-.46,1.09c-2,4.52-4.87,6.66-9,6.73h-.32c-6.44,0-10.49-3.25-10.58-8.49,0-2.42.88-5.17,2.49-9.1,5.85-14.42,8.57-16.5,15.52-16.62h.44a27.86,27.86,0,0,1,6.77.91,25.84,25.84,0,0,0,6.17.84H375l11.14-.24c5.09-.11,10.6-.24,14.84-.31a37.23,37.23,0,0,0,6.92-.9,31.08,31.08,0,0,1,5.63-.76H414c5.86,0,9,2.22,11.09,14.85a56.67,56.67,0,0,1,1,8.59c.07,4.07-.74,7-2.47,9.08s-4.68,3.24-8.69,3.31h-.21c-4.78,0-7.55-2.74-8.71-8.63L405.9,49c-.87-5-1.09-5.67-3.82-5.67h-.22c-4.07.07-4.47.49-6,6.45l-.21.77c-2.09,7.59-4.25,15.43-5.74,22.18-.83,3.7-.09,4.88,2.57,6.52,3.75,2.37,4.9,4.9,4.26,9.33-1,8.28-4.77,10-22.63,10.32C372.17,98.92,370.35,99,368.66,99Z"/><path class="cls-2" d="M414,22.81c5.55,0,8.5,2,10.53,14.37a56.39,56.39,0,0,1,1,8.51c.13,7.58-2.82,11.69-10.61,11.82h-.2c-4.85,0-7.15-3.07-8.15-8.18s-1.05-6.57-4.46-6.57h-.23c-4.47.07-5,.81-6.54,6.87-2.15,7.83-4.4,16-5.95,23-.87,3.86-.12,5.3,2.82,7.12,3.37,2.13,4.65,4.29,4,8.77C395.27,96.3,392,98,374.1,98.32c-1.94,0-3.75.07-5.45.07-10.83,0-16.46-1.19-15-10.12.77-3.75,1.75-6.78,6-8.73,3.51-1.82,5.77-3.42,7.84-10.21,1.77-6,4.79-17.75,5.76-21.51s-.29-4.61-3.75-4.61h-.38c-3.95.07-4.43,2-6.43,6.76-1.8,4.09-4.37,6.31-8.52,6.38h-.31c-5.37,0-9.92-2.42-10-7.93,0-2.39,1-5.22,2.44-8.88,6-14.76,8.57-16.15,15-16.26h.43c5.38,0,7.83,1.75,12.94,1.75H375c5.82-.1,18.08-.41,26-.54,5-.09,8.6-1.6,12.55-1.67H414m0-1.13h-.44a32,32,0,0,0-5.73.78,38.1,38.1,0,0,1-6.82.89c-4.24.07-9.61.19-14.81.31-4.39.09-8.47.19-11.17.23h-.36a24.88,24.88,0,0,1-6-.83,28.8,28.8,0,0,0-6.9-.91h-.45c-7.25.12-10.06,2.25-16,17-1.64,4-2.58,6.81-2.53,9.32.09,5.58,4.36,9,11.14,9h.33c4.41-.07,7.44-2.31,9.53-7l.47-1.11c1.7-4.07,2.16-4.93,4.95-5h.36c1.55,0,2.48.2,2.78.59s.35.93-.11,2.58l-.4,1.55c-1.24,4.76-3.8,14.67-5.37,20-2,6.48-4,7.85-7.24,9.52-4.74,2.19-5.83,5.75-6.6,9.52-.59,3.58-.12,6.18,1.41,8,2.47,2.91,7.26,3.48,14.69,3.48,1.68,0,3.47,0,5.47-.07,17.28-.29,22.12-1.67,23.18-10.83.68-4.66-.54-7.34-4.51-9.85-2.49-1.54-3.1-2.51-2.33-5.92,1.5-6.76,3.65-14.61,5.74-22.2l.2-.72c1.54-6,1.84-6,5.47-6h.21c2.27,0,2.4.19,3.27,5.19l.07.45c1.21,6.14,4.24,9.11,9.27,9.11h.22c8-.14,11.86-4.38,11.72-13a57,57,0,0,0-1-8.69c-1.91-11.58-4.73-15.3-11.64-15.3Z"/><path class="cls-1" d="M446.7,103a40.69,40.69,0,0,1-5.3-.36c-10.46-1.37-17.85-5.54-21.38-12.07-3.78-7-3-16.39,2.18-27.15,6.66-13.66,16.43-20.59,29-20.59a38.86,38.86,0,0,1,5.08.35c10.84,1.41,18.15,5.28,21.73,11.5s3.27,14.61-1,24.84C470.43,95.32,460.51,103,446.7,103Zm4.89-42.26c-6.16,0-9.5,8-10.49,14.88-.44,2.92-.19,5,.77,6.25a4.62,4.62,0,0,0,3.29,1.67,6.59,6.59,0,0,0,1,.07c5.35,0,9.59-6,10.79-15.15.52-4.89-.79-7.18-4.4-7.66A7.82,7.82,0,0,0,451.59,60.74Z"/><path class="cls-2" d="M451.23,43.4a37.77,37.77,0,0,1,5,.34c21.43,2.8,28.7,15.39,20.29,35.57-6.38,15.23-16,23.12-29.83,23.12a39.45,39.45,0,0,1-5.22-.35c-22.06-2.89-28.69-17.9-18.77-38.41,6.7-13.76,16.23-20.27,28.52-20.27m-5.08,40.77c5.76,0,10.13-6.31,11.35-15.63.46-4.35-.36-7.7-4.89-8.3a9,9,0,0,0-1-.06c-6.28,0-10,7.84-11,15.36-.7,4.52.1,8,4.54,8.56a7.55,7.55,0,0,0,1.06.07m5.08-41.9c-12.83,0-22.77,7-29.54,20.9-5.29,10.94-6,20.5-2.17,27.67,3.62,6.69,11.16,11,21.81,12.36a41.75,41.75,0,0,0,5.37.36c14.06,0,24.16-7.79,30.87-23.82,4.34-10.4,4.66-18.93,1-25.35S467.4,44.06,456.38,42.62a39.91,39.91,0,0,0-5.15-.35ZM446.15,83a7.22,7.22,0,0,1-.92-.06,4,4,0,0,1-2.9-1.45c-.87-1.16-1.09-3.06-.67-5.82,1-7.17,4.5-14.4,9.93-14.4a6.44,6.44,0,0,1,.87,0c3.27.43,4.41,2.47,3.92,7.06C455.22,77.29,451.2,83,446.15,83Z"/><path class="cls-1" d="M483,127.19a35.29,35.29,0,0,1-9.26-1.36,20.27,20.27,0,0,1-10.28-6.13A11.47,11.47,0,0,1,461.11,109c1.81-6.64,6.77-10.76,12.94-10.76a14.62,14.62,0,0,1,3.49.43c3,.68,5.11,2,6.34,4a9.38,9.38,0,0,1,.84,7,8.47,8.47,0,0,1-1.11,2.65,5.19,5.19,0,0,0-.7,1.61c-.37,1.36.95,1.83,1.36,1.94a3.36,3.36,0,0,0,.92.12c3.13,0,7.39-3.51,8.3-6.82.43-1.58,0-2.64-3.39-5.8-5.16-4.55-4.29-9.39-2.19-21.07l.25-1.37c.25-1.48.58-2.89.91-4.25.82-3.47,1.59-6.74.77-10.36l-.07-.28c-.69-2.74-1-4,.76-7.17,2.35-4.11,5-5.79,9-5.79,3.41,0,7.87,1.21,14,2.89s9,3.23,10,5.4c.67,1.47.47,3.21-.62,5.5a11.58,11.58,0,0,1-5.29,5.76c-2.63,1.57-2.72,1.89-4.21,7.21-.34,1.19-.74,2.63-1.25,4.37-2,6.55-2.76,9.44-2.21,10.45.09.18.28.38.88.55a2.67,2.67,0,0,0,.59.08c1,0,2.14-1,4.79-3.3,1.23-1.09,2.76-2.44,4.76-4.11,2.33-2.07,4.18-3.86,4.85-6.32.43-1.56.19-2.89-.87-4.9-1.07-2.18-1.76-4.14-.14-8,2.11-4.75,5.79-7.25,10.66-7.25a17.51,17.51,0,0,1,4.54.65c9.82,2.68,8.92,10.15,8.07,13.24-1.9,7-8.37,12.87-17.3,20.4-5.27,4.29-9.78,8.32-14.14,12.22-3.35,3-6.51,5.82-9.58,8.36C497.83,124,490.63,127.19,483,127.19Z"/><path class="cls-2" d="M499.51,53.67c3.34,0,7.7,1.19,13.88,2.88,9.23,2.52,11.5,4.86,9,10.1a10.93,10.93,0,0,1-5.06,5.52c-3.47,2.07-2.92,2.43-5.72,11.9s-3.14,11.11-.94,11.71a2.82,2.82,0,0,0,.74.11c1.8,0,3.38-2.1,9.91-7.55,2.42-2.14,4.33-4,5-6.6.49-1.8.14-3.3-.92-5.31s-1.63-3.9-.12-7.47c2-4.4,5.4-6.91,10.14-6.91a16.64,16.64,0,0,1,4.39.64c7.72,2.11,9,7.53,7.68,12.54-1.92,7-8.73,13-17.13,20.12-9.41,7.66-16.75,14.82-23.71,20.57-9,7.42-16,10.7-23.72,10.7a34.52,34.52,0,0,1-9.11-1.34c-8.23-2.24-14.35-8.22-12.19-16.15,1.71-6.27,6.44-10.34,12.39-10.34a14.31,14.31,0,0,1,3.36.42c7.2,1.64,7.59,6.92,6.76,10.35-.74,2.71-1.26,2.25-1.81,4.25a2.12,2.12,0,0,0,1.76,2.64,4.18,4.18,0,0,0,1.07.13c3.37,0,7.86-3.62,8.84-7.23.52-1.91-.11-3.16-3.54-6.36-5.13-4.52-4-9.29-1.78-21.93.92-5.35,2.86-9.67,1.68-14.84-.72-2.89-1.07-3.95.63-7,2.29-4,4.74-5.5,8.49-5.5m0-1.13c-4.2,0-7,1.82-9.47,6.07-1.87,3.39-1.52,4.8-.82,7.59l.07.29c.79,3.47.07,6.54-.77,10.09-.33,1.37-.66,2.79-.92,4.29l-.25,1.36c-2.14,11.91-3,16.83,2.39,21.61,3.52,3.28,3.52,4,3.2,5.21-.85,3.11-4.83,6.4-7.75,6.4a3.07,3.07,0,0,1-.77-.09c-.55-.15-1.17-.49-1-1.25a4.51,4.51,0,0,1,.64-1.46,8.94,8.94,0,0,0,1.17-2.79,9.92,9.92,0,0,0-.9-7.49c-1.31-2.12-3.57-3.55-6.7-4.27a15.56,15.56,0,0,0-3.61-.44c-6.44,0-11.6,4.28-13.48,11.18A12,12,0,0,0,463,120.06a20.67,20.67,0,0,0,10.56,6.31,35.59,35.59,0,0,0,9.41,1.38c7.81,0,15.12-3.27,24.44-11,3.08-2.55,6.24-5.37,9.59-8.37,4.36-3.89,8.87-7.92,14.12-12.2,9-7.61,15.55-13.54,17.5-20.69a11.37,11.37,0,0,0-.51-8.16c-1.38-2.77-4.06-4.71-8-5.77a17.84,17.84,0,0,0-4.69-.68c-5,0-9,2.7-11.17,7.58-1.72,4-1,6.21.13,8.43,1,1.92,1.24,3.09.85,4.51-.63,2.32-2.42,4-4.7,6.06-2,1.65-3.52,3-4.75,4.09-2.39,2.11-3.59,3.17-4.41,3.17a1.53,1.53,0,0,1-.44-.07c-.45-.12-.52-.23-.54-.28-.52-1,.95-5.76,2.26-10,.51-1.76.92-3.19,1.25-4.39,1.46-5.22,1.52-5.42,4-6.88a12,12,0,0,0,5.5-6c1.17-2.46,1.37-4.35.62-6-1.08-2.38-4-4-10.33-5.71S503,52.54,499.51,52.54Z"/><path class="cls-1" d="M550.79,129.15a21.3,21.3,0,0,1-7.87-1.52,15.71,15.71,0,0,1-8.54-7.43c-1.78-3.61-1.82-7.83-.09-12.2,3-7.51,7.87-11.63,13.56-16.41,3.73-3,14.73-12.81,16.31-14.23,1-1,1.45-1.87,1.33-2.46-.07-.36-.39-.64-.93-.86a6.38,6.38,0,0,0-1-.29,9.12,9.12,0,0,1-1.29-.39,3.41,3.41,0,0,1-2.13-2.28c-.33-1.14-.26-3.12,1.91-6a18.83,18.83,0,0,1,15.08-6.87,23.29,23.29,0,0,1,8.56,1.64c5.54,2.18,9.05,5.79,9.88,10.17.9,4.75-1.34,9.91-6.32,14.55-1.3,1.18-2.94,2.46-4.82,4-2.39,1.88-5.37,4.22-8.72,7.16-6.55,5.79-13.41,12.13-14.66,15.29a1.7,1.7,0,0,0,1,2.24,4.49,4.49,0,0,0,1.69.28l.89,0a4.2,4.2,0,0,1,1.57.25c2,.79,2.6,2.89,1.58,5.48C565.8,124.12,559.34,129.15,550.79,129.15Z"/><path class="cls-2" d="M577.12,58.72a22.77,22.77,0,0,1,8.36,1.61c11.61,4.56,12.9,14.9,3.38,23.78-2.94,2.64-7.56,5.85-13.53,11.1-7.7,6.8-13.59,12.41-14.81,15.51a2.23,2.23,0,0,0,1.29,3,4.8,4.8,0,0,0,1.9.32h.89a3.52,3.52,0,0,1,1.36.21c1.74.68,2.14,2.52,1.27,4.74-2,5.14-8.63,9.65-16.44,9.65a21,21,0,0,1-7.67-1.48c-7.35-2.89-11.85-9.91-8.31-18.91,2.82-7.16,7.24-11,13.4-16.17C552,88.94,563,79.18,564.54,77.78c1.84-1.84,2.16-3.5.22-4.26-.87-.35-1.33-.31-2.3-.69-2-.8-3.05-3.32,0-7.47a18.36,18.36,0,0,1,14.62-6.64m0-1.13h0a19.36,19.36,0,0,0-15.51,7.08c-2.34,3.13-2.39,5.3-2,6.56a4,4,0,0,0,2.47,2.66,10,10,0,0,0,1.37.41,5.57,5.57,0,0,1,.93.27c.16.06.54.23.59.44s-.15.91-1.18,1.95c-1.65,1.48-12.49,11.11-16.26,14.19-5.77,4.83-10.74,9-13.74,16.64-1.78,4.53-1.74,8.9.11,12.66a16.33,16.33,0,0,0,8.84,7.71,22,22,0,0,0,8.08,1.56c7.77,0,15.13-4.36,17.49-10.37,1.13-2.87.38-5.3-1.9-6.2a4.62,4.62,0,0,0-1.78-.29h-.89a3.93,3.93,0,0,1-1.49-.24,1.11,1.11,0,0,1-.65-1.5c1.2-3,8-9.33,14.51-15.07,3.34-2.93,6.3-5.27,8.69-7.15,1.89-1.49,3.53-2.78,4.84-4,5.14-4.79,7.44-10.14,6.51-15.08-.87-4.58-4.51-8.34-10.23-10.59a23.82,23.82,0,0,0-8.77-1.69Z"/><path class="cls-1" d="M613.89,159.06a19.71,19.71,0,0,1-9.34-2.5c-4.65-2.49-7.09-6.08-7.23-10.67,0-1,.15-1.79.24-2.51.25-1.87.27-2.56-.43-2.93a1.05,1.05,0,0,0-.53-.14,4.58,4.58,0,0,0-2,.89,22.32,22.32,0,0,1-2.31,1.26,16.06,16.06,0,0,1-6.22,1.38,17.77,17.77,0,0,1-8.52-2.54c-5-2.65-7.76-6.35-8.35-11-1-7.4,3.87-16.59,13.21-25.2,8.39-7.73,18.25-12.16,27.06-12.16a23.6,23.6,0,0,1,11.24,2.75c5.3,2.84,7.72,5.66,8.09,9.45l0,.29c.12,2.21.2,3.67.72,4a2.47,2.47,0,0,0,1.14.32,4.27,4.27,0,0,0,2-.79,8.24,8.24,0,0,1,4.37-1.37,13.73,13.73,0,0,1,6.31,1.94c3.23,1.73,5.36,2.87,6.44,4.1s1.14,2.76,0,4.93c-1.4,2.61-3.61,4.16-8,7.25-2.81,2-6.64,4.67-11.78,8.71-5.18,3.83-6.32,4.86-7.2,6.5a2.31,2.31,0,0,0-.41,1.6c.1.38.46.73,1.15,1.1a7.17,7.17,0,0,0,2,.68,7.51,7.51,0,0,1,1.71.58,2.78,2.78,0,0,1,1.5,2.4,7.51,7.51,0,0,1-1.09,3.77A15.71,15.71,0,0,1,613.89,159.06Zm-3.5-47.8c-3,0-6.54,2.09-9.63,5.74-2.56,3-3.75,6.13-3.27,8.5a5.29,5.29,0,0,0,3.06,3.7,6,6,0,0,0,2.87.76c2.69,0,5.65-2,8.81-5.89,2.76-3.47,4-6.65,3.62-9a4.25,4.25,0,0,0-2.19-3A6.32,6.32,0,0,0,610.39,111.26Z"/><path class="cls-2" d="M609.5,93.5a23,23,0,0,1,11,2.68c6,3.19,7.51,6,7.8,9,.15,2.8.21,4.24,1,4.68a2.93,2.93,0,0,0,1.41.39c1.87,0,3.18-2.15,6.4-2.15a13,13,0,0,1,6,1.87c6.41,3.43,8.24,4.41,6.18,8.26-2.2,4.13-6.61,5.54-19.64,15.78-5.27,3.9-6.42,4.94-7.35,6.68s-.67,2.58,1,3.47c1.46.78,2.58.67,3.68,1.26,1.47.79,1.7,2.56.18,5.4a15.09,15.09,0,0,1-13.3,7.68,19.25,19.25,0,0,1-9.08-2.44c-4.95-2.65-6.8-6.23-6.92-10.19.13-3.11,1.07-5.09-.49-5.92a1.6,1.6,0,0,0-.8-.21c-1.16,0-2.36,1.24-4.51,2.2a15.6,15.6,0,0,1-6,1.34,17.36,17.36,0,0,1-8.26-2.48c-14.11-7.55-8.28-23.06,5-35.3,7.74-7.12,17.46-12,26.68-12m-6.08,37c3.21,0,6.33-2.49,9.25-6.11,4-5,5.58-10.21,1.28-12.75a7,7,0,0,0-3.56-1c-3.53,0-7.2,2.57-10.06,6-4.19,5-5.13,10.46,0,13.07a6.57,6.57,0,0,0,3.13.82m6.08-38.16v0h0c-9,0-19,4.48-27.44,12.3-9.48,8.74-14.36,18.1-13.39,25.69.62,4.85,3.52,8.7,8.64,11.44,3.38,1.8,6.09,2.61,8.79,2.61a16.6,16.6,0,0,0,6.42-1.42,22.26,22.26,0,0,0,2.4-1.31,4.6,4.6,0,0,1,1.68-.81.54.54,0,0,1,.27.08c.35.18.37.58.13,2.36-.09.73-.2,1.56-.24,2.51v.08c.15,4.81,2.68,8.57,7.52,11.16a20.37,20.37,0,0,0,9.61,2.57,16.26,16.26,0,0,0,14.29-8.28,8,8,0,0,0,1.17-4.06,3.33,3.33,0,0,0-1.81-2.86,6.81,6.81,0,0,0-1.84-.63,7.35,7.35,0,0,1-1.84-.64c-.51-.27-.82-.54-.88-.74s0-.45.37-1.2c.78-1.46,1.69-2.36,7-6.3,5.15-4,9-6.74,11.78-8.7,4.48-3.15,6.73-4.72,8.19-7.45.9-1.69,1.6-3.66-.06-5.57-1.14-1.31-3.19-2.41-6.59-4.23a14.24,14.24,0,0,0-6.58-2,8.73,8.73,0,0,0-4.65,1.44,3.92,3.92,0,0,1-1.75.71,1.91,1.91,0,0,1-.88-.25,12.58,12.58,0,0,1-.42-3.48v-.27c-.39-4-2.9-7-8.39-9.94a24.08,24.08,0,0,0-11.51-2.81Zm-6.08,37a5.41,5.41,0,0,1-2.6-.69,4.79,4.79,0,0,1-2.78-3.32c-.44-2.21.71-5.13,3.15-8,3-3.52,6.34-5.55,9.2-5.55a5.88,5.88,0,0,1,3,.82,3.71,3.71,0,0,1,1.92,2.57c.39,2.12-.89,5.22-3.52,8.51-3,3.76-5.85,5.68-8.36,5.68Z"/><path class="cls-1" d="M671.71,199a20.57,20.57,0,0,1-12.36-4.41c-3.67-2.77-5.89-6.06-6.42-9.51a12.5,12.5,0,0,1,2.71-9.48c3.6-4.78,8.28-6.82,12.41-8.61l.62-.27c3.18-1.25,5.77-2.43,8-5.44a2.54,2.54,0,0,0,.51-2,2.48,2.48,0,0,0-.93-1.53,5.39,5.39,0,0,0-3.49-1.3,10.18,10.18,0,0,0-1.95.22,25.75,25.75,0,0,0-8,3.6,21.64,21.64,0,0,0-5.59,5.06,17.34,17.34,0,0,0-2.3,4.08,17.11,17.11,0,0,1-2.6,4.5c-2.28,2.85-4.8,4.23-7.72,4.23-3.41,0-7.45-1.85-12.74-5.83s-7.68-7-8-10.13c-.26-2.17.52-4.33,2.38-6.59a11.35,11.35,0,0,1,9.33-4.35c.41,0,.83,0,1.25.05a13.34,13.34,0,0,0,1.53.09c5.67,0,10.19-3.55,12.38-5.66,1-.93,1.54-1.66,1.52-2.2a1.65,1.65,0,0,0-.8-1.12c-.28-.21-.6-.42-.92-.63s-.67-.44-1-.67a4.58,4.58,0,0,1-2-3.55c0-1.61,1-3.23,3-4.82a24.38,24.38,0,0,1,14.41-4.94,15.14,15.14,0,0,1,10.57,3.71c2.9,2.81,3.91,5.16,3.59,8.37a17.83,17.83,0,0,1-.68,2.5c-.41,1.24-.65,2-.28,2.3a3.32,3.32,0,0,0,2.07.54,22.88,22.88,0,0,0,2.87-.27c.69-.09,1.44-.19,2.25-.27s1.49-.08,2.16-.08a19,19,0,0,1,12,4.05c4,3,6.53,6.69,7.29,10.61A13.48,13.48,0,0,1,704,170.08c-3.73,5-9.42,6.82-14.43,8.47l-1.74.57c-3.92,1.35-5.85,2.41-6.89,3.78a2.65,2.65,0,0,0-.61,1.72,2,2,0,0,0,.91,1.44,6.55,6.55,0,0,0,1.85.88,6.41,6.41,0,0,1,1.89.9c.85.64,2,2.14-.19,5A16.52,16.52,0,0,1,671.71,199Z"/><path class="cls-2" d="M664.87,128.34a14.72,14.72,0,0,1,10.18,3.55c3,2.92,3.69,5.12,3.42,7.91-.46,2.51-1.82,4.48-.74,5.3a3.87,3.87,0,0,0,2.41.66c1.35,0,3-.33,5.18-.55.69,0,1.39-.07,2.1-.07a18.34,18.34,0,0,1,11.65,3.93c8.14,6.13,9.22,14.36,4.47,20.67-4.06,5.4-10.66,7.07-15.9,8.85-4,1.38-6,2.48-7.16,4s-1,2.89.41,3.95c1.25.94,2.66,1,3.74,1.78,1.33,1,1,2.54-.3,4.2a15.89,15.89,0,0,1-12.62,5.91,19.91,19.91,0,0,1-12-4.3c-7.55-5.69-7.79-12.63-3.6-18.2,3.69-4.9,8.54-6.84,12.8-8.7,3-1.16,5.83-2.38,8.27-5.62a3,3,0,0,0-.53-4.3,5.94,5.94,0,0,0-3.83-1.41,11,11,0,0,0-2.06.23,26.26,26.26,0,0,0-8.24,3.68,22.43,22.43,0,0,0-5.72,5.19c-2.34,2.93-2.47,5.69-4.88,8.55-2.12,2.65-4.44,4-7.29,4-3.27,0-7.25-1.84-12.4-5.72-7.47-5.62-10.27-10.2-5.58-15.91a10.87,10.87,0,0,1,8.9-4.14c.4,0,.8,0,1.21,0a13.9,13.9,0,0,0,1.57.09c5.22,0,9.73-2.89,12.77-5.82,2-1.76,2.25-3,.67-4.17-.58-.44-1.31-.86-1.89-1.3-1.91-1.43-3.25-4.14.95-7.48a23.67,23.67,0,0,1,14.06-4.81m0-1.13a25,25,0,0,0-14.75,5c-2.15,1.71-3.23,3.48-3.21,5.28a5.18,5.18,0,0,0,2.27,4c.32.24.67.46,1,.68s.62.41.88.61.56.52.57.69-.07.63-1.31,1.74c-2.17,2.08-6.55,5.53-12,5.53a13.74,13.74,0,0,1-1.44-.08c-.49,0-.92-.05-1.34-.05a12.06,12.06,0,0,0-9.77,4.55c-2,2.39-2.78,4.68-2.5,7,.39,3.3,2.87,6.44,8.27,10.52s9.54,5.94,13.08,5.94c3.1,0,5.77-1.46,8.17-4.46a17.7,17.7,0,0,0,2.67-4.61,16.82,16.82,0,0,1,2.21-4,21.28,21.28,0,0,1,5.46-4.94A25,25,0,0,1,671,157.2a9.86,9.86,0,0,1,1.8-.2,4.85,4.85,0,0,1,3.15,1.18,1.89,1.89,0,0,1,.3,2.72c-2.17,2.89-4.69,4-7.77,5.25l-.65.28c-4.19,1.82-9,3.89-12.64,8.79a13,13,0,0,0-2.82,9.9c.55,3.61,2.85,7,6.64,9.88a21.15,21.15,0,0,0,12.7,4.53,17.08,17.08,0,0,0,13.52-6.36,6.17,6.17,0,0,0,1.34-2.9,3.07,3.07,0,0,0-1.26-2.89,7.39,7.39,0,0,0-2-1,5.82,5.82,0,0,1-1.69-.79,1.56,1.56,0,0,1-.69-1,2,2,0,0,1,.51-1.33c1-1.27,2.81-2.28,6.62-3.59l1.72-.57c5.1-1.67,10.87-3.56,14.71-8.66,5.39-7.14,3.5-16.09-4.69-22.25A19.51,19.51,0,0,0,687.42,144c-.68,0-1.39,0-2.18.08s-1.63.18-2.3.27a24.11,24.11,0,0,1-2.8.27,2.83,2.83,0,0,1-1.69-.41,7.48,7.48,0,0,1,.43-1.7,17.44,17.44,0,0,0,.7-2.52v-.09c.34-3.41-.71-5.89-3.75-8.83a15.72,15.72,0,0,0-11-3.87Z"/><path class="cls-1" d="M723,247.33a17.13,17.13,0,0,1-12.49-5.51c-4.78-4.94-5-9.57-4.43-13.84.22-1.26.47-2.26.68-3.06.4-1.58.54-2.23.15-2.64a.94.94,0,0,0-.74-.32,6.92,6.92,0,0,0-2,.51c-.73.25-1.64.56-2.74.83a14.35,14.35,0,0,1-3.49.45c-3.51,0-6.67-1.56-9.92-4.91-4.26-4.39-6-9.4-5.17-14.51,1.29-7.54,8.16-14.91,18.84-20.22a47.91,47.91,0,0,1,21.11-5.41c7.67,0,14.11,2.47,18.63,7.13,3.27,3.37,4.71,6.9,4.42,10.8a16.43,16.43,0,0,1-.61,2.85c-.49,1.76-.74,2.8,0,3.61a1.87,1.87,0,0,0,1.46.76,6.66,6.66,0,0,0,2-.47c2.45-.89,3.88-1.93,4.14-3a2.39,2.39,0,0,0-.83-2.14L750.84,197a4.31,4.31,0,0,1-1.15-3.58,5.78,5.78,0,0,1,3.07-4,14.23,14.23,0,0,1,7-1.72c5.59,0,11.62,2.78,16.14,7.44,3.22,3.32,5,7,5.18,10.71a12.94,12.94,0,0,1-4.24,10c-4.29,4.17-10.36,5.29-18.77,6.84l-2.28.42c-9.81,1.78-20.28,4-23.49,7.14-1.56,1.51-1.81,2.85-.72,4a5.84,5.84,0,0,0,2.21,1.38A5.87,5.87,0,0,1,735.9,237a2.8,2.8,0,0,1,.74,2.75,6.44,6.44,0,0,1-1.93,2.95A17.15,17.15,0,0,1,723,247.33Zm1.65-49.13a14.54,14.54,0,0,0-7.66,2.62c-3.2,2.11-5.19,4.68-5.45,7.06a5.31,5.31,0,0,0,1.69,4.36,5.6,5.6,0,0,0,4.1,1.72h0c2.18,0,4.74-1.05,7.82-3.21,3.5-2.56,5.53-5.19,5.72-7.41a3.87,3.87,0,0,0-1.22-3.14A6.71,6.71,0,0,0,724.61,198.2Z"/><path class="cls-2" d="M722.81,179.27c7.06,0,13.54,2.12,18.23,7,3.26,3.35,4.53,6.75,4.25,10.35-.26,2.87-2,5.27-.39,6.91a2.45,2.45,0,0,0,1.86.93,7.43,7.43,0,0,0,2.17-.5c4.07-1.49,5.86-3.52,3.55-6l-1.23-1.27c-1.88-2.09-1.18-4.94,1.79-6.66a13.68,13.68,0,0,1,6.67-1.65c5.54,0,11.47,2.87,15.74,7.28,6.37,6.56,6.69,14.36.95,19.93-4.55,4.42-11.33,5.34-20.76,7.11-9.73,1.77-20.43,4-23.78,7.29-1.79,1.74-2,3.43-.74,4.77,1.6,1.64,3.07,1.37,4.37,2.71s.77,3-1.17,4.91a16.49,16.49,0,0,1-23.44-.87c-4.34-4.47-4.87-8.6-4.28-13.37.64-3.66,1.62-5.19.68-6.16a1.51,1.51,0,0,0-1.15-.5c-1,0-2.44.78-4.82,1.36a14.3,14.3,0,0,1-3.36.44c-3.21,0-6.21-1.35-9.51-4.75-11.51-11.86-2.7-25.77,13.52-33.83a47.63,47.63,0,0,1,20.85-5.34m-5.52,35.25c2.64,0,5.49-1.44,8.16-3.31,4.83-3.53,7.91-8,4.58-11.4a7.31,7.31,0,0,0-5.42-2.17,15.26,15.26,0,0,0-8,2.7c-5.12,3.38-7.77,8.27-3.86,12.3a6.23,6.23,0,0,0,4.51,1.88m5.52-36.38h0a48.53,48.53,0,0,0-21.36,5.46c-10.85,5.39-17.83,12.92-19.15,20.64-.9,5.29.94,10.47,5.32,15,3.37,3.47,6.65,5.09,10.33,5.09a15,15,0,0,0,3.63-.47,27.51,27.51,0,0,0,2.78-.85,7.09,7.09,0,0,1,1.77-.48.4.4,0,0,1,.34.16c.18.19,0,1.07-.3,2.1-.21.81-.47,1.82-.69,3.08v.06c-.54,4.4-.36,9.18,4.6,14.29a17.61,17.61,0,0,0,25,.89c.91-.88,3.68-3.95,1.2-6.51a6.37,6.37,0,0,0-2.34-1.45,5.25,5.25,0,0,1-2-1.26c-.34-.35-1.24-1.27.71-3.17,3.53-3.42,17.31-5.92,23.2-7l2.29-.43c8.5-1.57,14.64-2.7,19.06-7a13.53,13.53,0,0,0,4.41-10.46c-.18-3.83-2-7.66-5.34-11.07-4.63-4.77-10.81-7.61-16.55-7.61a14.72,14.72,0,0,0-7.22,1.78,6.35,6.35,0,0,0-3.36,4.37,4.84,4.84,0,0,0,1.28,4l1.26,1.3a1.93,1.93,0,0,1,.68,1.6c-.1.4-.67,1.46-3.8,2.6a6.58,6.58,0,0,1-1.79.44c-.26,0-.52,0-1-.59s-.4-1.33.09-3.07a17.09,17.09,0,0,0,.62-2.94c.31-4.09-1.18-7.76-4.57-11.25-4.64-4.78-11.22-7.3-19-7.3Zm-5.52,35.25a5.07,5.07,0,0,1-3.71-1.56,4.75,4.75,0,0,1-1.52-3.89c.24-2.21,2.14-4.63,5.2-6.65a14.21,14.21,0,0,1,7.35-2.52,6.15,6.15,0,0,1,4.61,1.83,3.32,3.32,0,0,1,1.06,2.69c-.17,2-2.18,4.58-5.5,7-2.92,2-5.45,3.09-7.49,3.09Z"/><path class="cls-3" d="M49.84,241.31c-2.4,0-4.54-1.67-7.39-5.77-2.05-3.17-3.06-6.22-1.31-10.85,2.08-5.64.07-9-5.92-19l-.95-1.58-1-1.64c-4.53-7.51-6.8-11.28-11.16-11.28a6.23,6.23,0,0,0-.74,0c-.73,0-1.37.07-2,.07-2.68,0-4.53-.67-7.21-4.37-4.39-6.13-3.44-10.36,3.9-17.44,2.19-2.13,4.92-4.56,7.82-7.13,3.56-3.17,7.24-6.45,10.27-9.46,3.47-3.41,5.58-5.68,7.27-7.51,1.94-2.09,3.47-3.75,6.07-6.1s4.7-3.48,6.78-3.48c2.55,0,5,1.47,9.33,4.54,9.51,6.84,13.16,9.91,8,17.4-2.68,3.71-4.64,5.59-7.92,5.59a21.5,21.5,0,0,1-5.94-1.17,14.66,14.66,0,0,0-4.19-.83c-2.39,0-4.08,1.24-8,5-4.73,4.56-4.11,5.73-1.15,11.31,1.19,2.39,2.11,4.25,3.2,4.25a3,3,0,0,0,1.78-.93c1.56-1.39,1.32-2,.55-4.08l-.39-1.07c-.74-2.21-1.14-4.24,1.54-6.82a7.48,7.48,0,0,1,5.17-2.4c1.95,0,3.9.91,6.12,2.87,5.68,5.16,8.57,9.92,8.58,14.16A9.78,9.78,0,0,1,67.55,191a5.35,5.35,0,0,1-3.62,1.7,7.32,7.32,0,0,1-3.68-1.3,5.7,5.7,0,0,0-3-1.08,3.38,3.38,0,0,0-2.31,1c-2.18,2-1.59,3.71,1.74,9.06,1.79,2.81,3.2,4,4.72,4s3.11-1,5.5-3.33c6.2-6,8-9.05,6.74-16.5-.08-.56-.16-1.05-.24-1.5-.5-3-.71-4.26,2.37-7s5.39-3.81,7.55-3.81c3.54,0,6.49,3.25,9.27,10.25.64,1.64,1.28,3.12,1.84,4.43,2.81,6.55,4.36,10.16-.89,15.23-3.79,3.66-6.67,6-9.46,8.27-2.56,2.08-5,4.05-7.94,6.9-1.85,1.79-4.38,4.45-7.57,7.82-3,3.16-6.72,7.09-10.87,11.31C54.39,239.86,52,241.31,49.84,241.31Z"/><path class="cls-2" d="M54.32,136.38c2.45,0,5,1.59,9,4.43,9.65,6.94,12.68,9.62,7.9,16.6-2.77,3.83-4.57,5.34-7.45,5.34A21.54,21.54,0,0,1,58,161.61a15.1,15.1,0,0,0-4.35-.86c-2.66,0-4.56,1.49-8.35,5.14-5,4.8-4.32,6.24-1.26,12,1.33,2.67,2.26,4.56,3.71,4.56a3.49,3.49,0,0,0,2.16-1.07c2.14-1.92,1.33-2.91.33-5.78-.71-2.12-1.06-3.85,1.39-6.21a6.84,6.84,0,0,1,4.77-2.25c2.09,0,4,1.22,5.74,2.73,7.17,6.52,11.92,14.34,5,20.68a4.84,4.84,0,0,1-3.23,1.55,6.91,6.91,0,0,1-3.39-1.22,6.34,6.34,0,0,0-3.24-1.15,4,4,0,0,0-2.69,1.12c-2.6,2.36-1.59,4.64,1.63,9.8,1.81,2.85,3.38,4.29,5.21,4.29,1.63,0,3.48-1.15,5.9-3.49,6.42-6.2,8.13-9.47,6.91-17-.6-4.14-1.34-5.06,1.94-7.93,2.63-2.3,5-3.68,7.17-3.68,3.14,0,5.93,2.85,8.73,9.9,3.88,9.83,7.05,13.27,1.09,19-7.26,7-11.21,9.19-17.4,15.17-3.67,3.54-10,10.57-18.45,19.13-3.08,3.12-5.39,4.68-7.5,4.68-2.3,0-4.36-1.85-6.91-5.53-2.12-3.27-2.82-6.14-1.25-10.32,2.29-6.2-.2-9.85-6.91-21.09-5.21-8.59-7.63-13.2-12.65-13.2-.26,0-.52,0-.8,0-.69,0-1.32.08-1.9.08-2.57,0-4.23-.67-6.74-4.14-4.25-5.94-3.28-9.83,3.83-16.69,4.89-4.72,12.59-11.12,18.1-16.59,7.34-7.23,8.43-9.16,13.32-13.59,2.5-2.28,4.4-3.33,6.39-3.33m0-1.16c-2.23,0-4.38,1.09-7.17,3.64a85.31,85.31,0,0,0-6.1,6.13c-1.69,1.82-3.8,4.09-7.25,7.49-3,3-6.7,6.28-10.26,9.44-2.9,2.58-5.63,5-7.84,7.14-7.6,7.34-8.57,11.76-4,18.19,2.81,3.89,4.86,4.62,7.68,4.62.64,0,1.33,0,2-.08l.72,0c4,0,6.25,3.67,10.67,11l1,1.64.94,1.58c5.88,9.82,7.87,13.13,5.88,18.51-1.57,4.15-1.17,7.44,1.36,11.35,3,4.31,5.26,6,7.88,6,2.36,0,4.85-1.5,8.32-5,4.16-4.24,7.89-8.17,10.89-11.33,3.18-3.36,5.7-6,7.54-7.79,2.94-2.83,5.35-4.8,7.91-6.87,2.79-2.27,5.68-4.62,9.49-8.3,5.54-5.35,3.84-9.31,1-15.88-.56-1.3-1.19-2.78-1.84-4.41-2.87-7.25-6-10.62-9.8-10.62-2.31,0-4.83,1.26-7.93,4s-3.1,4.23-2.56,7.49c.08.44.16.93.24,1.48,1.16,7.21-.53,10.18-6.58,16-2.23,2.16-3.85,3.17-5.09,3.17s-2.58-1.16-4.24-3.76c-3.33-5.36-3.63-6.68-1.82-8.32a2.8,2.8,0,0,1,1.91-.83,5.18,5.18,0,0,1,2.63,1,7.81,7.81,0,0,0,4,1.4,5.9,5.9,0,0,0,4-1.85,10.4,10.4,0,0,0,3.72-7.81c0-4.41-3-9.32-8.76-14.58-2.35-2.07-4.42-3-6.52-3a8,8,0,0,0-5.57,2.56c-2.92,2.81-2.46,5.11-1.68,7.42l.39,1.09c.77,2.06.87,2.32-.4,3.46-.78.67-1.2.77-1.39.77-.73,0-1.72-2-2.67-3.89-2.94-5.57-3.39-6.41,1-10.68,3.75-3.61,5.36-4.81,7.55-4.81a14.07,14.07,0,0,1,4,.8,22,22,0,0,0,6.12,1.19c3.51,0,5.66-2,8.38-5.81,5.44-7.94,1.43-11.32-8.16-18.22-4.39-3.15-7-4.65-9.66-4.65Z"/><path class="cls-3" d="M105,186.42c-2.92,0-5.2-1.59-7.18-5a12.26,12.26,0,0,1-.22-11.88c3.06-5.88.68-12.89-.48-15.64-.72-1.7-1.34-1.9-1.74-1.9a2.71,2.71,0,0,0-1.36.53l-2,1.26a4.89,4.89,0,0,1-2.6.8c-1.29,0-3.67-.63-5.06-4.83-2.46-8-.91-18.6,6.8-23.54A12,12,0,0,1,97.55,124a8.1,8.1,0,0,1,3.92,1,17.28,17.28,0,0,1,2.47,1.68,4.22,4.22,0,0,0,1.69,1,.42.42,0,0,0,.21-.06c1-.63,1.21-2,1.55-4,.15-.92.33-2,.61-3.13,1.19-5,4-8.84,9-12a13.7,13.7,0,0,1,7.39-2.51,10.7,10.7,0,0,1,5.27,1.45,19.18,19.18,0,0,1,2.07,1.5c.66.53,1.19,1,1.59,1a.94.94,0,0,0,.49-.17c.92-.59,1.08-1.54,1.45-3.62.18-1.08.42-2.42.84-4.1C137,99,138.74,95,144.34,91.44a19.49,19.49,0,0,1,10.34-3.35,13.58,13.58,0,0,1,11.71,6.58c3.45,5.38,3.14,11.74,2.9,16.84,0,.67-.06,1.31-.08,1.94-.11,4.15,0,6.55,1,8.15a2.24,2.24,0,0,0,1.8,1.17,2.4,2.4,0,0,0,1.28-.42,6.31,6.31,0,0,0,1.66-1.52,5.51,5.51,0,0,1,1.43-1.34,2.78,2.78,0,0,1,1.52-.49c1.46,0,2.49,1.35,3.14,2.36,4.54,7.1,2.93,18.48-7.62,25.24a17.89,17.89,0,0,1-9.57,3.19c-4.35,0-8.21-2.29-10.87-6.44-3.25-5.09-3.28-10.57-3.31-15.41,0-3.4-.09-6.67-1.85-9.42a2.77,2.77,0,0,0-2.38-1.46,3.69,3.69,0,0,0-2,.65,4.81,4.81,0,0,0-2,2.67c-.82,2.73,0,6.67.8,10.16a22.76,22.76,0,0,0,4.17,9,21.45,21.45,0,0,0,2.58,2.76,15.09,15.09,0,0,1,3.18,3.88c3.36,5.68,3.3,10.27-7,16.88-5.09,3.25-8.57,4.71-11.27,4.71-3.54,0-5.53-2.52-7.16-5.23-2.26-4-2.25-7.46-2.23-11.16.39-6.51.11-11.67-2.53-15.8a3.15,3.15,0,0,0-2.56-1.76,3.79,3.79,0,0,0-2,.68,5.08,5.08,0,0,0-2.12,3.08c-1.2,3.49-.29,8.57.16,10.6a23.39,23.39,0,0,0,2.71,6.73,21.71,21.71,0,0,0,3.18,3.77,20,20,0,0,1,3.23,3.88c4.25,7.07,1.72,12.68-8.73,19.38C111,185,107.66,186.42,105,186.42Z"/><path class="cls-2" d="M154.68,88.67A13.06,13.06,0,0,1,165.91,95c3.78,5.91,2.91,13,2.72,18.45-.11,4.36.05,6.78,1.14,8.48a2.72,2.72,0,0,0,2.28,1.44,2.94,2.94,0,0,0,1.59-.51c1.79-1.15,1.75-2,3.09-2.86a2.2,2.2,0,0,1,1.21-.4c1,0,1.89.91,2.65,2.09,4.06,6.35,3.2,17.63-7.45,24.44a17.3,17.3,0,0,1-9.25,3.1c-4.3,0-7.89-2.28-10.38-6.18-3.15-4.92-3.2-10.31-3.22-15.09,0-3.3,0-6.78-1.94-9.74a3.36,3.36,0,0,0-2.87-1.72,4.34,4.34,0,0,0-2.3.74,5.42,5.42,0,0,0-2.27,3c-.85,2.81-.1,6.75.78,10.48a23.58,23.58,0,0,0,4.27,9.24c2.22,2.88,4.06,3.59,5.72,6.57,3.14,5.3,3.44,9.53-6.85,16.11-5,3.18-8.37,4.62-11,4.62-2.89,0-4.77-1.78-6.66-5-2.11-3.69-2.17-6.94-2.16-10.86.39-6.3.19-11.73-2.61-16.11a3.67,3.67,0,0,0-3-2,4.31,4.31,0,0,0-2.29.78,5.63,5.63,0,0,0-2.37,3.4c-1.06,3.08-.58,7.57.15,10.88a24.07,24.07,0,0,0,2.79,6.92c2.12,3.31,4.54,4.54,6.4,7.64,4,6.65,1.84,11.94-8.54,18.59-4.4,2.81-7.79,4.37-10.56,4.37s-4.81-1.48-6.68-4.7a11.76,11.76,0,0,1-.2-11.35c2.66-5.11,1.51-11.44-.46-16.1-.66-1.54-1.37-2.25-2.28-2.25a3.24,3.24,0,0,0-1.67.61l-2,1.26a4.32,4.32,0,0,1-2.29.71c-1.66,0-3.43-1.15-4.51-4.43-2.47-8-.69-18.23,6.56-22.87a11.44,11.44,0,0,1,6.08-2.14,7.49,7.49,0,0,1,3.64,1c2.12,1.13,3.39,2.79,4.44,2.79a.93.93,0,0,0,.52-.16c1.7-1.09,1.48-3.6,2.41-7.47,1-4.31,3.34-8.19,8.71-11.63a13.13,13.13,0,0,1,7.08-2.41,10.27,10.27,0,0,1,5,1.37c2,1.24,2.91,2.54,3.93,2.54a1.44,1.44,0,0,0,.8-.27c1.7-1.09,1.3-3.1,2.54-8.06.88-3,2.57-6.82,8-10.31a18.76,18.76,0,0,1,10-3.26m0-1.15A20,20,0,0,0,144,91c-5.76,3.68-7.58,7.79-8.52,11v0c-.43,1.7-.66,3.05-.85,4.14-.37,2.11-.52,2.8-1.19,3.23a.74.74,0,0,1-.18.08,4.4,4.4,0,0,1-1.23-.83,19.67,19.67,0,0,0-2.1-1.53l0,0h0a11.33,11.33,0,0,0-5.55-1.52,14.25,14.25,0,0,0-7.7,2.6c-5.06,3.23-8,7.15-9.21,12.33-.29,1.19-.46,2.24-.62,3.17-.34,2-.55,3.08-1.24,3.56a7,7,0,0,1-1.29-.89,17.11,17.11,0,0,0-2.56-1.75,8.73,8.73,0,0,0-4.18-1.1,12.48,12.48,0,0,0-6.7,2.33c-8,5.08-9.57,16-7,24.18,1.5,4.57,4.16,5.24,5.61,5.24a5.34,5.34,0,0,0,2.91-.89l2-1.26a2.22,2.22,0,0,1,1-.43c.48,0,1,1,1.21,1.55,1.13,2.67,3.44,9.48.5,15.12a13,13,0,0,0,.21,12.43c2.11,3.63,4.55,5.3,7.7,5.3,2.85,0,6.19-1.36,11.18-4.55,10.79-6.9,13.37-12.74,8.91-20.16a20.53,20.53,0,0,0-3.31-4,21.8,21.8,0,0,1-3.11-3.67A23.09,23.09,0,0,1,116,148c-.9-4.08-1-7.92-.18-10.22l0,0v0a4.54,4.54,0,0,1,1.87-2.74,3.22,3.22,0,0,1,1.67-.59c.28,0,1.12,0,2.07,1.49,2.56,4,2.83,9.06,2.44,15.42v.07c0,3.61,0,7.35,2.31,11.43,1.64,2.75,3.82,5.54,7.66,5.54,2.82,0,6.39-1.48,11.58-4.81,10.73-6.86,10.77-11.67,7.22-17.67a15.36,15.36,0,0,0-3.28-4,22.57,22.57,0,0,1-2.51-2.7,22.28,22.28,0,0,1-4.08-8.83c-.84-3.62-1.53-7.34-.79-9.83a4.24,4.24,0,0,1,1.79-2.35,3.16,3.16,0,0,1,1.68-.57,2.23,2.23,0,0,1,1.89,1.2c1.68,2.62,1.79,5.8,1.76,9.1,0,4.93.06,10.5,3.41,15.73,2.77,4.32,6.8,6.71,11.35,6.71a18.56,18.56,0,0,0,9.88-3.28c10.86-7,12.49-18.7,7.79-26-.72-1.13-1.88-2.63-3.62-2.63a3.43,3.43,0,0,0-1.83.58,6.29,6.29,0,0,0-1.57,1.47,5.7,5.7,0,0,1-1.52,1.39,1.84,1.84,0,0,1-1,.33,1.69,1.69,0,0,1-1.31-.9c-.94-1.47-1.06-3.79-1-7.83,0-.61.05-1.26.09-1.92.24-5.19.55-11.65-3-17.18a14.14,14.14,0,0,0-12.2-6.84Z"/><path class="cls-3" d="M220.84,123c-6.28,0-11.1-3.88-13.21-10.64-1.82-5.94-1.29-13.14,1.6-21.41,1-2.45.6-3.25.48-3.44a.63.63,0,0,0-.58-.24,2.88,2.88,0,0,0-1,.21c-.36.14-.68.23-1,.33a8.56,8.56,0,0,0-.91.29,5.31,5.31,0,0,1-1.8.35c-2.52,0-4.12-2.29-4.27-6.14,0-8.56,9.5-18.66,17.74-21.67a17.53,17.53,0,0,1,5.86-1.14c4.8,0,8.21,2.8,9.37,7.68,1.32,3.87.26,7.22-1.08,11.46a53.86,53.86,0,0,0-2.36,9.7c-.56,4.11-.79,5.81,0,7.89.18.47.49,1,.94,1l.16,0a4.91,4.91,0,0,0,2.15-1.08,5.93,5.93,0,0,1,1.36-.82,3.32,3.32,0,0,1,1.16-.23c2.33,0,3.43,2.91,3.79,3.86a16.6,16.6,0,0,1-.63,12.69c-1.52,3.28-4.78,7.72-11.7,10.19A17.72,17.72,0,0,1,220.84,123Zm-8-63.24c-3.85,0-6.44-1.78-7.69-5.29-2.13-5.95,1.94-14.52,13.67-18.72a19.26,19.26,0,0,1,6.41-1.3,7.87,7.87,0,0,1,8,5.59,11.21,11.21,0,0,1-.13,8.84c-1.8,3.81-6.11,7-12.81,9.38A23.11,23.11,0,0,1,212.88,59.77Z"/><path class="cls-2" d="M225.27,35a7.26,7.26,0,0,1,7.42,5.2c2.42,6.7-.29,13.06-12.6,17.48a22.46,22.46,0,0,1-7.21,1.47c-3.5,0-5.93-1.5-7.15-4.9-2-5.61,2-13.94,13.32-18A18.61,18.61,0,0,1,225.27,35m-1.5,25.05c4.52,0,7.7,2.54,8.81,7.23,2.13,6.24-2.15,11.15-3.45,21-.57,4.2-.81,6,0,8.17.36,1,.87,1.41,1.48,1.41l.29,0c1.7-.3,2.49-1.51,3.59-1.92a2.67,2.67,0,0,1,1-.19c1.53,0,2.52,1.57,3.25,3.49,2.81,7.45-.57,18-12,22.13a17.34,17.34,0,0,1-5.89,1.1c-5.87,0-10.59-3.6-12.66-10.23-2-6.41-.92-13.85,1.59-21,1.2-3.08.72-4.45-.64-4.45A3.52,3.52,0,0,0,208,87c-.7.27-1.23.35-1.93.62a4.63,4.63,0,0,1-1.59.32c-2.28,0-3.56-2.27-3.69-5.6-.05-7.93,8.87-18,17.36-21.09a16.69,16.69,0,0,1,5.66-1.11m1.5-26.2h0a19.92,19.92,0,0,0-6.61,1.33c-12.07,4.32-16.23,13.25-14,19.45,1.34,3.77,4.11,5.68,8.23,5.68a23.39,23.39,0,0,0,7.59-1.54c6.87-2.46,11.29-5.72,13.15-9.68a11.76,11.76,0,0,0,.16-9.28,8.4,8.4,0,0,0-8.51-6Zm-1.5,25a17.89,17.89,0,0,0-6.05,1.17c-8.42,3.07-18.18,13.43-18.13,22.19.17,4.17,2,6.74,4.85,6.74a5.72,5.72,0,0,0,2-.39,8,8,0,0,1,.87-.28c.33-.09.66-.19,1.06-.34a2.31,2.31,0,0,1,.76-.17h.13s.3.63-.56,2.87c-2.94,8.42-3.48,15.74-1.63,21.8a16.45,16.45,0,0,0,5.3,8.17,13.47,13.47,0,0,0,8.47,2.88,18.5,18.5,0,0,0,6.29-1.18,20.53,20.53,0,0,0,12-10.49,17.11,17.11,0,0,0,.65-13.13c-.4-1.05-1.6-4.24-4.33-4.24a3.74,3.74,0,0,0-1.36.27,6,6,0,0,0-1.5.9,4.27,4.27,0,0,1-1.88,1h-.05c-.08,0-.26-.17-.44-.65-.7-1.85-.55-3.3,0-7.61a53.79,53.79,0,0,1,2.34-9.6c1.32-4.15,2.45-7.74,1.08-11.83-1.24-5.13-4.85-8.06-9.92-8.06Z"/><path class="cls-3" d="M252.46,110.29c-5.22,0-8.13-2.38-9.14-7.49-.82-4.26.29-7.81,3.46-11.16,4.67-4.55,4.89-11.1,4.61-14.6-.12-2.82-1-2.82-1.44-2.82a3.21,3.21,0,0,0-.71.09c-.35.09-.72.2-1.09.32s-.79.25-1.16.34a6.35,6.35,0,0,1-1.47.18,4.12,4.12,0,0,1-3-1.18c-1-1.07-1.57-2.81-1.53-5.18.26-9,6.44-19.34,15.22-20.54a19.34,19.34,0,0,1,2.18-.13,8.67,8.67,0,0,1,6.77,2.73A18.23,18.23,0,0,1,266.68,53c.56.89,1.09,1.73,1.53,1.73l.11,0c1.3-.31,2.14-1.67,3.42-3.72.37-.6.78-1.26,1.24-2a20,20,0,0,1,12.31-8.61,23.22,23.22,0,0,1,5.47-.69c7.39,0,12.8,4.11,14.47,11,1.49,6.16-.72,11.87-2.67,16.9-.23.59-.46,1.17-.67,1.74-1.48,4-1.9,6.18-1.48,7.89a2.13,2.13,0,0,0,2,1.91,2.83,2.83,0,0,0,.68-.09,6.55,6.55,0,0,0,1.89-.89,6.88,6.88,0,0,1,1.93-.92,3.69,3.69,0,0,1,.72-.08c1,0,2.41.6,3.11,3.47,2,8.14-3.14,18.3-15.13,21.22a21.41,21.41,0,0,1-4.92.63c-6.39,0-10.95-3.65-12.49-10-1.45-6,0-11,1.24-15.41l.18-.65c1.08-3.32,1.83-6.14.92-9.88a2.53,2.53,0,0,0-2.49-2,2.1,2.1,0,0,0-.56.07c-2.13.51-3.19,1.39-4.37,3.59a26.26,26.26,0,0,0-2.37,8.68,22.44,22.44,0,0,0,.37,7.7,17.65,17.65,0,0,0,1.74,4.47,17.34,17.34,0,0,1,1.87,5c1.67,7.83-2.54,12.22-14.53,15.13A33.59,33.59,0,0,1,252.46,110.29Z"/><path class="cls-2" d="M290.76,40.31c7.29,0,12.35,4.16,13.91,10.54,1.63,6.71-1.33,13-3.32,18.3-1.53,4.09-2,6.38-1.5,8.24a2.63,2.63,0,0,0,2.56,2.34,3.4,3.4,0,0,0,.82-.1c1.55-.38,2.49-1.48,3.83-1.8a2.45,2.45,0,0,1,.58-.08c1.3,0,2.11,1.22,2.55,3,1.75,7.22-2.52,17.56-14.7,20.51a20.26,20.26,0,0,1-4.79.62c-6.54,0-10.56-3.92-11.93-9.57-1.48-6.09.13-11.18,1.42-15.76,1-3.09,1.9-6.15.92-10.17A3.1,3.1,0,0,0,278.06,64a3.27,3.27,0,0,0-.7.08c-2.27.56-3.46,1.5-4.74,3.89a26.39,26.39,0,0,0-2.43,8.9,22.89,22.89,0,0,0,.38,7.89c.8,3.74,2.9,5.64,3.6,9.4,1.55,7.28-2.11,11.56-14.09,14.47a33.36,33.36,0,0,1-7.62,1.12c-4.7,0-7.57-1.95-8.58-7-.79-4.18.36-7.52,3.32-10.64,4.33-4.23,5.15-10.33,4.77-15.05-.1-2.28-.67-3.35-2-3.35a3.89,3.89,0,0,0-.85.11c-.72.18-1.52.48-2.24.66a6.06,6.06,0,0,1-1.34.16c-2,0-4-1.27-4-5.77.27-9.25,6.57-18.87,14.72-20a17.88,17.88,0,0,1,2.1-.13,8.12,8.12,0,0,1,6.36,2.55c1.58,1.87,2.28,4.06,3.46,4.06a1.09,1.09,0,0,0,.25,0c2-.47,2.93-2.78,5-5.92a19.35,19.35,0,0,1,12-8.37,22.93,22.93,0,0,1,5.33-.67m0-1.16a23.74,23.74,0,0,0-5.6.71,20.52,20.52,0,0,0-12.64,8.82c-.48.74-.9,1.41-1.27,2-1.19,1.91-2,3.17-3,3.46a6.71,6.71,0,0,1-1.06-1.45,19.46,19.46,0,0,0-1.55-2.18l0,0,0,0a9.32,9.32,0,0,0-7.18-2.9,20.2,20.2,0,0,0-2.23.14c-9.1,1.23-15.48,11.9-15.75,21.09,0,2.54.53,4.42,1.7,5.61a4.7,4.7,0,0,0,3.42,1.35,7,7,0,0,0,1.61-.2c.4-.1.8-.23,1.19-.35s.73-.23,1.05-.31a2.84,2.84,0,0,1,.58-.08c.25,0,.77,0,.86,2.25.28,3.44.07,9.8-4.42,14.17-3.34,3.53-4.49,7.24-3.64,11.69,1.06,5.37,4.24,8,9.71,8a34.26,34.26,0,0,0,7.89-1.16c12.21-3,16.68-7.7,14.95-15.83a18.07,18.07,0,0,0-1.91-5.09,17.29,17.29,0,0,1-1.69-4.31,21.48,21.48,0,0,1-.36-7.52,25.54,25.54,0,0,1,2.31-8.52c1.1-2,2-2.79,4-3.27a1.58,1.58,0,0,1,.43,0A2,2,0,0,1,280,66.69c.87,3.59.14,6.33-.9,9.54l-.2.69c-1.28,4.5-2.72,9.6-1.24,15.7,1.61,6.65,6.37,10.45,13.05,10.45a21.51,21.51,0,0,0,5.06-.64c7.43-1.81,11.33-6,13.29-9.18a17,17,0,0,0,2.26-12.74c-.79-3.23-2.43-3.91-3.67-3.91a3.58,3.58,0,0,0-.85.1,7.39,7.39,0,0,0-2.1,1,6,6,0,0,1-1.73.83,2.18,2.18,0,0,1-.55.07c-.26,0-1.08,0-1.44-1.46s0-3.71,1.46-7.56c.21-.57.44-1.14.66-1.73,2-5.11,4.24-10.91,2.7-17.25-1.71-7-7.47-11.43-15-11.43Z"/><path class="cls-3" d="M368,91.61c-7.43,0-12.2-.55-14.58-3.35-1.45-1.72-1.89-4.22-1.32-7.66.79-3.87,1.82-7.23,6.45-9.35,3.39-1.77,5.6-3.22,7.69-10.09,1.61-5.4,4.23-15.54,5.49-20.41l.4-1.56c.44-1.57.44-2.6,0-3.15s-1.45-.84-3.29-.84h-.38c-3.34,0-3.91,1.41-5.59,5.45l-.47,1.11c-2,4.62-5,6.8-9.23,6.87h-.32c-6.58,0-10.73-3.32-10.82-8.68,0-2.46.9-5.28,2.55-9.3,6-14.73,8.75-16.86,15.86-17h.45a28.46,28.46,0,0,1,6.92.93,26.36,26.36,0,0,0,6.31.86h.38l11.38-.24c5.2-.12,10.83-.24,15.17-.32a37.77,37.77,0,0,0,7.07-.92,32.66,32.66,0,0,1,5.76-.78h.44c6,0,9.21,2.27,11.34,15.18a58.56,58.56,0,0,1,1,8.78c.15,8.51-3.48,12.54-11.41,12.67H415c-4.88,0-7.71-2.8-8.9-8.82l-.08-.46c-.89-5.14-1.11-5.8-3.9-5.8h-.23c-4.16.07-4.56.5-6.13,6.58l-.22.78c-2.13,7.76-4.34,15.78-5.86,22.68-.85,3.79-.09,5,2.62,6.67,3.84,2.42,5,5,4.36,9.54-1,8.46-4.88,10.24-23.14,10.55C371.56,91.58,369.7,91.61,368,91.61Z"/><path class="cls-2" d="M414.31,13.77c5.67,0,8.69,2.08,10.77,14.69a57.86,57.86,0,0,1,1,8.7c.14,7.76-2.88,12-10.84,12.09H415c-5,0-7.3-3.14-8.33-8.36s-1.07-6.72-4.55-6.72h-.24c-4.57.08-5.09.83-6.68,7-2.2,8-4.51,16.33-6.09,23.48-.89,4-.12,5.42,2.89,7.28,3.44,2.18,4.75,4.39,4.08,9-.92,8-4.29,9.74-22.57,10-2,0-3.83.06-5.56.06-11.07,0-16.83-1.21-15.33-10.33.78-3.84,1.79-6.94,6.12-8.93,3.58-1.86,5.89-3.5,8-10.44,1.81-6.09,4.9-18.15,5.9-22s-.3-4.71-3.83-4.71h-.39c-4,.07-4.54,2.09-6.58,6.91-1.84,4.18-4.46,6.45-8.71,6.52h-.31c-5.5,0-10.15-2.49-10.24-8.12,0-2.44,1-5.33,2.5-9.07,6.12-15.09,8.75-16.51,15.34-16.63h.44c5.5,0,8,1.79,13.22,1.79h.4c5.95-.1,18.48-.42,26.55-.56,5.1-.09,8.8-1.64,12.83-1.7h.43m0-1.15h-.45a31.76,31.76,0,0,0-5.86.8,38.75,38.75,0,0,1-7,.91c-4.33.07-9.84.19-15.16.31l-11.39.24h-.38a26.06,26.06,0,0,1-6.17-.84,28.86,28.86,0,0,0-7.05-.94h-.46c-7.41.12-10.29,2.3-16.39,17.34-1.67,4.09-2.63,7-2.59,9.53.1,5.71,4.47,9.25,11.4,9.25h.33c4.51-.08,7.61-2.37,9.74-7.21.18-.41.33-.78.48-1.13,1.74-4.17,2.21-5.05,5.07-5.1h.37c1.57,0,2.53.2,2.83.61s.36,1-.11,2.64l-.41,1.58c-1.26,4.87-3.88,15-5.48,20.39-2,6.63-4.14,8-7.41,9.74-4.85,2.23-6,5.87-6.74,9.72-.61,3.66-.13,6.32,1.44,8.17,2.52,3,7.42,3.56,15,3.56,1.71,0,3.54,0,5.58-.07,17.67-.3,22.61-1.71,23.7-11.07.7-4.77-.55-7.51-4.61-10.07-2.55-1.58-3.17-2.56-2.38-6.06C391.78,58,394,50,396.12,42.27l.21-.78c1.58-6.1,1.88-6.1,5.59-6.17h.22c2.32,0,2.45.2,3.33,5.32l.08.45c1.24,6.27,4.34,9.31,9.47,9.31h.23c8.21-.14,12.13-4.48,12-13.26a57.28,57.28,0,0,0-1-8.87C424,15,420.5,12.62,414.31,12.62Z"/><path class="cls-3" d="M447.75,95.75a42.69,42.69,0,0,1-5.42-.37C431.64,94,424.08,89.72,420.48,83c-3.87-7.15-3.1-16.75,2.22-27.75,6.81-14,16.8-21,29.68-21a40.52,40.52,0,0,1,5.19.35C468.65,36,476.12,40,479.78,46.35s3.35,14.94-1,25.4C472,87.9,461.86,95.75,447.75,95.75Zm5-43.2c-6.29,0-9.7,8.2-10.71,15.21-.46,3-.2,5.07.78,6.39a4.72,4.72,0,0,0,3.36,1.71,8.68,8.68,0,0,0,1,.06c5.48,0,9.81-6.07,11-15.48.53-5-.82-7.34-4.51-7.83A7.89,7.89,0,0,0,452.74,52.55Z"/><path class="cls-2" d="M452.38,34.82a39.46,39.46,0,0,1,5.12.35C479.41,38,486.84,50.9,478.24,71.53c-6.52,15.57-16.41,23.64-30.49,23.64a41.29,41.29,0,0,1-5.34-.36c-22.55-3-29.33-18.3-19.19-39.27,6.86-14.06,16.6-20.72,29.16-20.72m-5.2,41.68c5.9,0,10.36-6.45,11.61-16,.47-4.44-.36-7.87-5-8.48a9.57,9.57,0,0,0-1.05-.07c-6.42,0-10.18,8-11.28,15.71-.71,4.62.11,8.16,4.64,8.75a7.94,7.94,0,0,0,1.08.07m5.2-42.83v0h0c-13.12,0-23.28,7.19-30.2,21.37C416.78,66.21,416,76,420,83.32c3.69,6.84,11.4,11.21,22.29,12.63a41.84,41.84,0,0,0,5.49.37c14.37,0,24.69-8,31.56-24.35,4.43-10.63,4.76-19.35,1-25.91S468.91,35.5,457.65,34a41.75,41.75,0,0,0-5.27-.35Zm-5.2,41.68a7.38,7.38,0,0,1-.93-.06,4.17,4.17,0,0,1-3-1.49c-.89-1.18-1.11-3.13-.68-5.94,1.06-7.34,4.6-14.73,10.14-14.73a6.8,6.8,0,0,1,.9.06c3.34.43,4.5,2.52,4,7.21-1.19,9.07-5.29,14.95-10.46,14.95Z"/><path class="cls-3" d="M484.81,120.48a35.72,35.72,0,0,1-9.46-1.4,20.7,20.7,0,0,1-10.51-6.26,11.73,11.73,0,0,1-2.36-10.95c1.85-6.79,6.92-11,13.22-11a15.23,15.23,0,0,1,3.57.44c3.05.69,5.23,2.07,6.48,4.09a9.55,9.55,0,0,1,.86,7.19,8.65,8.65,0,0,1-1.13,2.72,5.37,5.37,0,0,0-.72,1.64,1.38,1.38,0,0,0,.18,1.23,2.16,2.16,0,0,0,1.22.76,3.43,3.43,0,0,0,.93.12c3.2,0,7.56-3.59,8.49-7,.44-1.61,0-2.69-3.46-5.92-5.28-4.65-4.39-9.6-2.25-21.54l.26-1.4c.26-1.51.6-3,.93-4.34.84-3.55,1.63-6.9.79-10.6l-.08-.29c-.69-2.79-1-4.07.78-7.32,2.41-4.21,5.07-5.92,9.19-5.92,3.48,0,8,1.24,14.34,3s9.17,3.29,10.19,5.52c.68,1.49.48,3.28-.64,5.61a11.72,11.72,0,0,1-5.4,5.89c-2.7,1.61-2.79,1.93-4.31,7.38-.34,1.22-.75,2.68-1.28,4.46-2.06,6.69-2.82,9.66-2.26,10.68.1.18.29.39.91.56a2.24,2.24,0,0,0,.6.09c1.06,0,2.18-1,4.89-3.38,1.26-1.11,2.82-2.49,4.87-4.2,2.38-2.11,4.27-3.94,5-6.45.44-1.6.19-3-.89-5-1.1-2.23-1.8-4.23-.15-8.13,2.16-4.85,5.92-7.41,10.9-7.41a17.84,17.84,0,0,1,4.64.66c10,2.74,9.12,10.38,8.25,13.54-1.94,7.14-8.56,13.15-17.68,20.85-5.39,4.38-10,8.5-14.46,12.49-3.42,3.06-6.65,5.94-9.79,8.54C500,117.17,492.65,120.48,484.81,120.48Z"/><path class="cls-2" d="M501.74,45.33c3.41,0,7.86,1.21,14.19,2.94,9.43,2.57,11.75,5,9.18,10.32a11.14,11.14,0,0,1-5.17,5.64c-3.55,2.12-3,2.49-5.85,12.17s-3.21,11.35-1,12a2.9,2.9,0,0,0,.75.11c1.84,0,3.45-2.14,10.13-7.71,2.47-2.19,4.42-4.09,5.15-6.75.5-1.85.15-3.37-.94-5.44s-1.67-4-.13-7.63c2-4.5,5.53-7.06,10.37-7.06a17,17,0,0,1,4.49.65c7.9,2.15,9.25,7.7,7.85,12.83-2,7.17-8.92,13.31-17.51,20.55-9.62,7.84-17.13,15.16-24.24,21-9.2,7.58-16.37,10.94-24.25,10.94a35.27,35.27,0,0,1-9.31-1.37c-8.41-2.3-14.67-8.41-12.46-16.51,1.75-6.42,6.59-10.57,12.66-10.57a14.37,14.37,0,0,1,3.44.42c7.36,1.68,7.76,7.08,6.91,10.59-.76,2.77-1.29,2.29-1.85,4.34a2.17,2.17,0,0,0,1.8,2.7,4.34,4.34,0,0,0,1.09.13c3.45,0,8-3.7,9-7.39.54-1.95-.11-3.23-3.62-6.5-5.24-4.62-4.13-9.5-1.82-22.41.95-5.48,2.92-9.89,1.72-15.18-.74-2.95-1.1-4,.64-7.2,2.34-4.09,4.85-5.62,8.69-5.62m0-1.16c-4.3,0-7.2,1.86-9.69,6.21-1.91,3.46-1.55,4.89-.84,7.75l.08.3c.81,3.55.06,6.68-.8,10.32-.33,1.39-.67,2.84-.93,4.38l-.25,1.39c-2.19,12.17-3.1,17.2,2.44,22.09,3.6,3.35,3.6,4.13,3.27,5.32-.87,3.18-4.94,6.55-7.93,6.55a2.73,2.73,0,0,1-.78-.1,1.59,1.59,0,0,1-.9-.54.78.78,0,0,1-.09-.73,4.67,4.67,0,0,1,.65-1.5,9.15,9.15,0,0,0,1.19-2.85,10.13,10.13,0,0,0-.92-7.66c-1.34-2.16-3.64-3.62-6.85-4.35a15.1,15.1,0,0,0-3.69-.46c-6.57,0-11.85,4.38-13.77,11.42-1.81,6.63,1.59,14.74,13.27,17.93a36.33,36.33,0,0,0,9.61,1.41c8,0,15.46-3.35,25-11.2,3.16-2.61,6.39-5.5,9.81-8.56,4.46-4,9.07-8.1,14.43-12.47C543.26,81,549.93,75,551.92,67.67a11.57,11.57,0,0,0-.52-8.35c-1.41-2.82-4.15-4.81-8.13-5.89a18.3,18.3,0,0,0-4.8-.69c-5.15,0-9.2,2.75-11.42,7.74-1.75,4.14-1,6.35.14,8.61,1,2,1.26,3.17.86,4.62-.64,2.37-2.47,4.13-4.79,6.19-2,1.7-3.6,3.08-4.86,4.19-2.45,2.15-3.67,3.23-4.51,3.23a1.93,1.93,0,0,1-.45-.06c-.47-.13-.53-.25-.55-.29-.54-1,1-5.89,2.3-10.23.53-1.79.94-3.26,1.28-4.48,1.5-5.34,1.56-5.54,4.06-7a12.27,12.27,0,0,0,5.62-6.12c1.2-2.51,1.4-4.45.64-6.11-1.11-2.43-4.07-4.07-10.56-5.84s-10.93-3-14.49-3Z"/><path class="cls-3" d="M554.16,122.48a21.86,21.86,0,0,1-8-1.55,16.06,16.06,0,0,1-8.73-7.6c-1.83-3.69-1.86-8-.1-12.47,3-7.68,8.05-11.89,13.87-16.77C555,80.91,566.22,71,567.82,69.54c1-1,1.49-1.91,1.36-2.52-.08-.36-.4-.65-.95-.87a7.18,7.18,0,0,0-1-.31,7.57,7.57,0,0,1-1.33-.39,3.5,3.5,0,0,1-2.17-2.33c-.34-1.17-.27-3.19,2-6.19,3.49-4.47,9.1-7,15.41-7a23.74,23.74,0,0,1,8.75,1.68c5.66,2.23,9.25,5.92,10.1,10.4.92,4.85-1.37,10.13-6.46,14.87-1.34,1.2-3,2.52-4.94,4-2.44,1.92-5.48,4.31-8.9,7.32-6.69,5.91-13.71,12.39-15,15.63a1.68,1.68,0,0,0,0,1.37,1.76,1.76,0,0,0,1,.91,4.5,4.5,0,0,0,1.72.29l.92,0a4.17,4.17,0,0,1,1.6.26c2,.8,2.66,3,1.62,5.59C569.49,117.34,562.9,122.48,554.16,122.48Z"/><path class="cls-2" d="M581.07,50.49a23.36,23.36,0,0,1,8.54,1.64c11.87,4.67,13.19,15.23,3.46,24.31-3,2.7-7.73,6-13.83,11.35-7.87,6.95-13.9,12.68-15.14,15.85a2.29,2.29,0,0,0,1.32,3,5,5,0,0,0,1.93.33l.92,0a3.68,3.68,0,0,1,1.39.22c1.78.7,2.19,2.57,1.29,4.84-2.06,5.26-8.82,9.86-16.79,9.86a21.28,21.28,0,0,1-7.84-1.51c-7.52-3-12.12-10.13-8.5-19.32,2.88-7.32,7.39-11.25,13.7-16.54,3.87-3.16,15.09-13.13,16.69-14.56,1.88-1.88,2.2-3.58.23-4.36-.89-.35-1.37-.31-2.36-.7-2.07-.81-3.11-3.39,0-7.63a18.71,18.71,0,0,1,15-6.79m0-1.16a19.83,19.83,0,0,0-15.86,7.23c-2.38,3.21-2.44,5.42-2.07,6.72A4.12,4.12,0,0,0,565.66,66a9.52,9.52,0,0,0,1.4.42,5.5,5.5,0,0,1,1,.27c.17.07.56.24.6.46s-.14.93-1.2,2c-1.69,1.52-12.79,11.38-16.62,14.51-5.9,4.94-11,9.19-14,17-1.82,4.63-1.78,9.11.12,12.94a16.66,16.66,0,0,0,9,7.89,22.59,22.59,0,0,0,8.27,1.59c7.94,0,15.45-4.46,17.87-10.59,1.15-2.94.39-5.43-1.94-6.35a4.84,4.84,0,0,0-1.82-.29h-.92a3.88,3.88,0,0,1-1.51-.25,1.13,1.13,0,0,1-.67-1.53c1.23-3.12,8.19-9.54,14.83-15.41,3.41-3,6.45-5.38,8.88-7.3,1.94-1.53,3.62-2.85,5-4,5.25-4.9,7.61-10.37,6.65-15.42-.89-4.68-4.61-8.53-10.46-10.83a24.43,24.43,0,0,0-9-1.72Z"/><path class="cls-3" d="M618.65,153.06a20.19,20.19,0,0,1-9.55-2.56c-4.75-2.55-7.24-6.22-7.38-10.91,0-1,.15-1.83.25-2.56.25-1.91.27-2.62-.44-3a1.14,1.14,0,0,0-.55-.15,4.85,4.85,0,0,0-2,.91,19,19,0,0,1-2.35,1.29,16.48,16.48,0,0,1-6.36,1.42c-2.67,0-5.35-.8-8.71-2.6-5.06-2.71-7.93-6.49-8.54-11.25-1-7.57,4-17,13.51-25.77,8.57-7.89,18.65-12.42,27.66-12.42a24,24,0,0,1,11.49,2.81c5.42,2.9,7.89,5.79,8.27,9.65v.31c.13,2.25.21,3.74.74,4a2.51,2.51,0,0,0,1.17.33,4.45,4.45,0,0,0,2.08-.81,8.43,8.43,0,0,1,4.46-1.4,14,14,0,0,1,6.45,2c6.51,3.48,8.95,4.79,6.57,9.23-1.43,2.67-3.69,4.26-8.2,7.42-2.86,2-6.79,4.76-12,8.89-5.29,3.92-6.46,5-7.35,6.65-.77,1.44-.61,2,.75,2.76a7.62,7.62,0,0,0,2,.7,7,7,0,0,1,1.75.6,2.8,2.8,0,0,1,1.54,2.44,7.7,7.7,0,0,1-1.12,3.86A16.05,16.05,0,0,1,618.65,153.06Zm-3.57-48.87c-3.1,0-6.69,2.14-9.85,5.87-2.61,3.09-3.83,6.26-3.34,8.69a5.44,5.44,0,0,0,3.13,3.79,6.2,6.2,0,0,0,2.93.77c2.75,0,5.78-2,9-6,2.83-3.55,4.15-6.8,3.71-9.16a4.36,4.36,0,0,0-2.24-3A6.49,6.49,0,0,0,615.08,104.19Z"/><path class="cls-2" d="M614.17,86a23.36,23.36,0,0,1,11.21,2.73c6.09,3.26,7.68,6.16,8,9.21.16,2.86.22,4.33,1.06,4.78a2.94,2.94,0,0,0,1.44.4c1.91,0,3.25-2.2,6.54-2.2a13.3,13.3,0,0,1,6.18,1.91c6.56,3.51,8.43,4.51,6.33,8.45-2.26,4.22-6.77,5.66-20.08,16.13-5.39,4-6.56,5-7.51,6.83s-.7,2.64,1,3.54c1.5.8,2.64.69,3.77,1.29,1.5.81,1.73,2.62.18,5.52a15.41,15.41,0,0,1-13.6,7.85,19.61,19.61,0,0,1-9.27-2.49c-5.06-2.71-7-6.37-7.08-10.42.13-3.18,1.09-5.2-.5-6a1.7,1.7,0,0,0-.82-.21c-1.19,0-2.41,1.26-4.61,2.25a15.89,15.89,0,0,1-6.12,1.36,17.65,17.65,0,0,1-8.44-2.53c-14.43-7.72-8.47-23.58,5.09-36.08C594.81,91,604.75,86,614.17,86M608,123.89c3.28,0,6.47-2.55,9.45-6.24,4-5.07,5.71-10.45,1.32-13a7.07,7.07,0,0,0-3.64-1c-3.62,0-7.36,2.62-10.29,6.08-4.28,5.06-5.24,10.69,0,13.36a6.74,6.74,0,0,0,3.2.84m6.22-39h0c-9.14,0-19.37,4.59-28,12.58-9.69,8.93-14.68,18.5-13.69,26.26.63,5,3.6,8.89,8.83,11.69,3.45,1.85,6.22,2.67,9,2.67a16.87,16.87,0,0,0,6.56-1.46,21.84,21.84,0,0,0,2.46-1.33,4.64,4.64,0,0,1,1.71-.83.52.52,0,0,1,.27.08c.36.19.38.59.14,2.41-.09.75-.21,1.6-.25,2.57v.09c.15,4.91,2.74,8.75,7.69,11.4a20.79,20.79,0,0,0,9.82,2.63,16.63,16.63,0,0,0,14.62-8.46c2.52-4.73.38-6.53-.66-7.08a7.66,7.66,0,0,0-1.88-.65,7.14,7.14,0,0,1-1.88-.65c-.53-.28-.85-.55-.9-.76s0-.46.37-1.22c.81-1.5,1.73-2.41,7.18-6.44,5.27-4.14,9.19-6.89,12-8.9,4.57-3.21,6.87-4.82,8.37-7.62.92-1.71,1.63-3.73-.06-5.68-1.17-1.34-3.27-2.47-6.74-4.33a14.57,14.57,0,0,0-6.73-2,8.87,8.87,0,0,0-4.75,1.48,4,4,0,0,1-1.79.73,2,2,0,0,1-.9-.26,12.54,12.54,0,0,1-.43-3.56v-.27c-.4-4.13-3-7.16-8.58-10.16a24.63,24.63,0,0,0-11.76-2.88ZM608,122.73a5.5,5.5,0,0,1-2.65-.7,4.87,4.87,0,0,1-2.84-3.39c-.46-2.26.72-5.25,3.21-8.2,3.05-3.61,6.48-5.67,9.41-5.67a5.89,5.89,0,0,1,3,.84,3.71,3.71,0,0,1,2,2.62c.4,2.16-.91,5.33-3.59,8.7-3.1,3.85-6,5.8-8.55,5.8Z"/><path class="cls-3" d="M677.76,193.84a21,21,0,0,1-12.63-4.51c-3.76-2.82-6-6.19-6.57-9.72a12.78,12.78,0,0,1,2.77-9.69c3.69-4.89,8.47-7,12.7-8.8l.62-.28c3.25-1.27,5.9-2.48,8.22-5.56a2.54,2.54,0,0,0-.43-3.59,5.5,5.5,0,0,0-3.56-1.32,9.8,9.8,0,0,0-2,.23,26,26,0,0,0-8.22,3.67,22.24,22.24,0,0,0-5.71,5.17,17.64,17.64,0,0,0-2.35,4.18,17.55,17.55,0,0,1-2.66,4.59c-2.33,2.91-4.91,4.33-7.89,4.33-3.48,0-7.62-1.89-13-6s-7.86-7.2-8.24-10.36c-.26-2.22.53-4.42,2.43-6.73a11.65,11.65,0,0,1,9.55-4.45c.42,0,.84,0,1.28.05a13.86,13.86,0,0,0,1.56.09c5.79,0,10.41-3.63,12.65-5.79,1.06-.94,1.58-1.69,1.55-2.24,0-.37-.28-.75-.81-1.15-.29-.22-.61-.43-.94-.64s-.69-.45-1-.68a4.71,4.71,0,0,1-2.09-3.63c0-1.65,1-3.31,3-4.93a24.9,24.9,0,0,1,14.73-5.05,15.48,15.48,0,0,1,10.8,3.79c3,2.88,4,5.28,3.67,8.56a18.19,18.19,0,0,1-.69,2.55c-.42,1.27-.66,2.07-.29,2.35a3.35,3.35,0,0,0,2.12.56,24,24,0,0,0,2.93-.28c.71-.09,1.47-.19,2.3-.27s1.53-.08,2.21-.08a19.36,19.36,0,0,1,12.26,4.13c4.1,3.09,6.67,6.84,7.44,10.85a13.74,13.74,0,0,1-2.76,11.09c-3.82,5.07-9.63,7-14.76,8.65l-1.77.59c-4,1.38-6,2.46-7,3.87a2.63,2.63,0,0,0-.63,1.75,2.1,2.1,0,0,0,.93,1.48,6.53,6.53,0,0,0,1.89.89,7,7,0,0,1,1.93.92,2.55,2.55,0,0,1,1.07,2.42,5.84,5.84,0,0,1-1.26,2.68A16.86,16.86,0,0,1,677.76,193.84Z"/><path class="cls-2" d="M670.77,121.65a15.09,15.09,0,0,1,10.41,3.63c3.07,3,3.77,5.24,3.49,8.08-.47,2.57-1.86,4.59-.76,5.42a3.91,3.91,0,0,0,2.47.68c1.38,0,3.11-.34,5.29-.56.7-.05,1.42-.08,2.15-.08a18.75,18.75,0,0,1,11.91,4c8.32,6.26,9.43,14.68,4.57,21.13-4.15,5.52-10.89,7.23-16.25,9-4.13,1.42-6.17,2.54-7.32,4.07s-1,2.95.42,4c1.27,1,2.71,1,3.82,1.81,1.35,1,1,2.6-.31,4.29a16.2,16.2,0,0,1-12.9,6.05,20.33,20.33,0,0,1-12.28-4.4c-7.73-5.81-8-12.91-3.69-18.6,3.78-5,8.73-7,13.09-8.9,3-1.18,6-2.43,8.45-5.74a3.12,3.12,0,0,0-.54-4.4,6.08,6.08,0,0,0-3.91-1.44,10.74,10.74,0,0,0-2.11.24,26.62,26.62,0,0,0-8.42,3.76,22.76,22.76,0,0,0-5.85,5.31c-2.39,3-2.52,5.81-5,8.74-2.16,2.71-4.54,4.13-7.45,4.13-3.35,0-7.41-1.88-12.67-5.85-7.64-5.75-10.5-10.43-5.71-16.27a11.12,11.12,0,0,1,9.1-4.23c.4,0,.81,0,1.24,0a14.44,14.44,0,0,0,1.6.09c5.33,0,10-3,13-5.95,2-1.8,2.3-3.06.69-4.27-.6-.45-1.34-.87-1.93-1.32-2-1.47-3.33-4.24,1-7.65a24.16,24.16,0,0,1,14.37-4.92m0-1.15a25.5,25.5,0,0,0-15.08,5.16c-2.2,1.75-3.3,3.56-3.28,5.39a5.25,5.25,0,0,0,2.32,4.09c.33.25.69.48,1,.71s.64.41.9.61.58.53.59.71-.08.65-1.35,1.78c-2.21,2.13-6.69,5.65-12.28,5.65a14.68,14.68,0,0,1-1.48-.08c-.49,0-.93-.05-1.36-.05a12.31,12.31,0,0,0-10,4.65c-2,2.44-2.84,4.79-2.56,7.17.4,3.38,2.93,6.59,8.46,10.75s9.75,6.08,13.37,6.08c3.17,0,5.9-1.49,8.35-4.56a18.19,18.19,0,0,0,2.73-4.71,17,17,0,0,1,2.26-4,21.56,21.56,0,0,1,5.58-5.06,25.49,25.49,0,0,1,8-3.6,9.6,9.6,0,0,1,1.85-.21,4.92,4.92,0,0,1,3.21,1.2,2,2,0,0,1,.32,2.79c-2.23,2.95-4.81,4.13-7.95,5.36l-.66.29c-4.29,1.86-9.15,4-12.93,9A13.32,13.32,0,0,0,658,179.7c.56,3.68,2.91,7.18,6.79,10.1a21.66,21.66,0,0,0,13,4.62,17.45,17.45,0,0,0,13.82-6.5c2.59-3.44.92-5.28.08-5.91a7,7,0,0,0-2.09-1,6.53,6.53,0,0,1-1.73-.81c-.55-.42-1.17-1.12-.19-2.43s2.88-2.33,6.77-3.66l1.76-.59c5.21-1.7,11.12-3.64,15-8.85,5.5-7.31,3.58-16.45-4.79-22.75a20,20,0,0,0-12.61-4.25c-.7,0-1.42,0-2.23.08s-1.66.19-2.35.28a23.26,23.26,0,0,1-2.86.27,2.93,2.93,0,0,1-1.73-.41,7.2,7.2,0,0,1,.44-1.74,19.71,19.71,0,0,0,.72-2.58v-.09c.34-3.49-.73-6-3.84-9a16.08,16.08,0,0,0-11.21-4Z"/><path class="cls-3" d="M730.15,243.29a17.46,17.46,0,0,1-12.76-5.64c-4.9-5-5.08-9.78-4.54-14.14.23-1.29.49-2.31.69-3.13.42-1.61.57-2.28.16-2.7a1,1,0,0,0-.76-.33,7.39,7.39,0,0,0-2,.52c-.74.26-1.67.58-2.79.86a15.08,15.08,0,0,1-3.57.46c-3.6,0-6.82-1.6-10.15-5-4.35-4.48-6.18-9.61-5.28-14.82,1.32-7.72,8.34-15.25,19.26-20.68A48.9,48.9,0,0,1,730,173.13c7.83,0,14.42,2.53,19,7.29,3.34,3.45,4.81,7.05,4.51,11a16.93,16.93,0,0,1-.62,2.91c-.51,1.81-.76,2.87,0,3.7a1.92,1.92,0,0,0,1.48.78,7.19,7.19,0,0,0,2-.49c2.49-.91,4-2,4.23-3.06a2.49,2.49,0,0,0-.85-2.19l-1.25-1.28a4.38,4.38,0,0,1-1.17-3.66,5.9,5.9,0,0,1,3.13-4,14.51,14.51,0,0,1,7.1-1.76c5.72,0,11.89,2.85,16.51,7.61,3.29,3.39,5.12,7.17,5.29,10.95a13.21,13.21,0,0,1-4.33,10.25c-4.39,4.26-10.59,5.4-19.18,7l-2.34.43c-10,1.82-20.73,4.11-24,7.3a4.3,4.3,0,0,0-1.4,2.26,2.05,2.05,0,0,0,.66,1.79,6,6,0,0,0,2.26,1.42,6,6,0,0,1,2.21,1.36,2.89,2.89,0,0,1,.76,2.81,6.73,6.73,0,0,1-2,3A17.58,17.58,0,0,1,730.15,243.29Zm1.69-50.22a14.84,14.84,0,0,0-7.84,2.67c-3.27,2.16-5.3,4.79-5.56,7.22a5.39,5.39,0,0,0,1.72,4.46,5.72,5.72,0,0,0,4.2,1.75c2.23,0,4.85-1.07,8-3.28,3.58-2.61,5.66-5.3,5.85-7.57a4,4,0,0,0-1.25-3.21A6.86,6.86,0,0,0,731.84,193.07Z"/><path class="cls-2" d="M730,173.71c7.22,0,13.83,2.17,18.63,7.12,3.33,3.43,4.63,6.9,4.35,10.58-.27,2.93-2,5.38-.41,7.06a2.52,2.52,0,0,0,1.9.95,7.43,7.43,0,0,0,2.23-.51c4.16-1.52,6-3.59,3.63-6.19l-1.26-1.29c-1.92-2.13-1.2-5.05,1.83-6.81a13.91,13.91,0,0,1,6.81-1.68c5.67,0,11.73,2.93,16.1,7.43,6.51,6.71,6.84,14.68,1,20.38-4.65,4.52-11.58,5.46-21.23,7.27-9.94,1.81-20.87,4.12-24.31,7.45-1.83,1.78-2.08,3.5-.75,4.88,1.63,1.67,3.14,1.4,4.47,2.77s.78,3.09-1.2,5a16.84,16.84,0,0,1-24-.88c-4.44-4.58-5-8.79-4.38-13.67.66-3.75,1.66-5.31.7-6.3a1.56,1.56,0,0,0-1.18-.51c-1.05,0-2.49.8-4.92,1.4a14.87,14.87,0,0,1-3.43.44c-3.29,0-6.36-1.37-9.73-4.85-11.77-12.13-2.76-26.34,13.82-34.59A48.79,48.79,0,0,1,730,173.71m-5.64,36c2.69,0,5.61-1.48,8.33-3.39,4.94-3.61,8.09-8.14,4.69-11.65a7.49,7.49,0,0,0-5.54-2.22,15.48,15.48,0,0,0-8.15,2.77c-5.24,3.45-7.94,8.44-3.94,12.56a6.32,6.32,0,0,0,4.61,1.93M730,172.56h0a49.6,49.6,0,0,0-21.84,5.58c-11.09,5.51-18.22,13.2-19.57,21.1-.93,5.4.95,10.7,5.44,15.32,3.44,3.55,6.8,5.2,10.56,5.2a15.57,15.57,0,0,0,3.7-.47c1.15-.29,2.09-.61,2.85-.87a7.47,7.47,0,0,1,1.8-.49.41.41,0,0,1,.35.15c.19.2,0,1.11-.3,2.15-.22.83-.48,1.87-.71,3.15v.06c-.56,4.51-.37,9.39,4.69,14.61a18,18,0,0,0,25.59.91c.93-.9,3.76-4,1.23-6.65a6.53,6.53,0,0,0-2.4-1.48,5.47,5.47,0,0,1-2.07-1.29c-.34-.36-1.26-1.3.73-3.24,3.6-3.49,17.69-6.05,23.71-7.14l2.34-.44c8.69-1.6,15-2.76,19.48-7.14a13.81,13.81,0,0,0,4.51-10.69c-.18-3.92-2.07-7.83-5.45-11.32-4.73-4.88-11.06-7.78-16.93-7.78a15.1,15.1,0,0,0-7.37,1.82,6.44,6.44,0,0,0-3.43,4.47,4.91,4.91,0,0,0,1.3,4.12l1.29,1.33a1.94,1.94,0,0,1,.69,1.63c-.1.41-.68,1.49-3.88,2.66a6.85,6.85,0,0,1-1.84.45c-.26,0-.53-.05-1.07-.6s-.41-1.36.09-3.14a16,16,0,0,0,.64-3c.32-4.18-1.21-7.93-4.67-11.5-4.74-4.88-11.47-7.46-19.46-7.46Zm-5.64,36a5.19,5.19,0,0,1-3.8-1.6,4.86,4.86,0,0,1-1.55-4c.25-2.26,2.19-4.73,5.32-6.8a14.45,14.45,0,0,1,7.51-2.57,6.34,6.34,0,0,1,4.71,1.86,3.43,3.43,0,0,1,1.08,2.76c-.17,2.07-2.22,4.68-5.62,7.16-3,2.1-5.57,3.17-7.65,3.17Z"/><path class="cls-4" d="M42.61,237.27c-2.45,0-4.63-1.71-7.54-5.9C33,228.14,32,225,33.73,220.3c2.13-5.75.07-9.19-6-19.4l-1-1.61-1-1.68C21.09,190,18.77,186.1,14.32,186.1a6.56,6.56,0,0,0-.76,0c-.74,0-1.4.08-2,.08-2.74,0-4.63-.69-7.36-4.47-4.48-6.25-3.51-10.58,4-17.8,2.24-2.17,5-4.65,8-7.28,3.63-3.24,7.39-6.58,10.48-9.65,3.53-3.48,5.69-5.8,7.42-7.67,2-2.13,3.54-3.82,6.19-6.22s4.8-3.55,6.93-3.55c2.59,0,5.13,1.49,9.51,4.63,9.71,7,13.44,10.12,8.2,17.75-2.73,3.79-4.73,5.71-8.08,5.71a22.23,22.23,0,0,1-6.07-1.19,15,15,0,0,0-4.27-.85c-2.44,0-4.17,1.27-8.11,5.08-4.83,4.66-4.2,5.85-1.18,11.55,1.21,2.44,2.16,4.33,3.27,4.33a3.12,3.12,0,0,0,1.82-.94c1.58-1.42,1.34-2.06.56-4.17-.13-.33-.26-.7-.4-1.09-.76-2.25-1.16-4.33,1.56-7A7.64,7.64,0,0,1,49.29,161c2,0,4,.93,6.24,2.93,5.8,5.26,8.75,10.12,8.76,14.45a10,10,0,0,1-3.6,7.53,5.47,5.47,0,0,1-3.7,1.74,7.45,7.45,0,0,1-3.75-1.33,5.8,5.8,0,0,0-3-1.09,3.42,3.42,0,0,0-2.35,1c-2.23,2-1.63,3.79,1.77,9.25,1.83,2.87,3.27,4.09,4.82,4.09s3.17-1,5.61-3.39c6.34-6.12,8.11-9.24,6.88-16.85-.08-.57-.16-1.07-.24-1.53-.52-3.07-.73-4.34,2.42-7.1s5.49-3.9,7.7-3.9c3.62,0,6.62,3.33,9.46,10.47.66,1.68,1.31,3.19,1.88,4.52,2.87,6.69,4.46,10.37-.9,15.55-3.88,3.74-6.82,6.13-9.66,8.44-2.62,2.12-5.09,4.13-8.11,7-1.89,1.83-4.46,4.54-7.72,8C58.72,224,54.92,228,50.69,232.32,47.26,235.79,44.84,237.27,42.61,237.27Z"/><path class="cls-2" d="M47.19,130.17c2.49,0,5.12,1.62,9.17,4.52,9.84,7.08,12.94,9.82,8.06,16.94-2.83,3.91-4.67,5.45-7.6,5.45a22.09,22.09,0,0,1-5.9-1.16,15.53,15.53,0,0,0-4.44-.88c-2.72,0-4.66,1.52-8.52,5.25-5.07,4.89-4.41,6.36-1.29,12.25,1.36,2.72,2.31,4.64,3.79,4.64a3.53,3.53,0,0,0,2.2-1.09c2.19-2,1.36-3,.34-5.9-.73-2.16-1.08-3.93,1.41-6.34a7,7,0,0,1,4.88-2.28c2.13,0,4.1,1.24,5.85,2.78C62.46,171,67.31,179,60.29,185.46A5,5,0,0,1,57,187a7.08,7.08,0,0,1-3.45-1.24,6.5,6.5,0,0,0-3.32-1.18,4,4,0,0,0-2.74,1.15c-2.65,2.4-1.62,4.72,1.66,10,1.85,2.9,3.45,4.37,5.32,4.37,1.66,0,3.55-1.18,6-3.56,6.55-6.33,8.3-9.67,7.05-17.36-.61-4.23-1.36-5.16,2-8.1,2.68-2.34,5.08-3.75,7.31-3.75,3.2,0,6.06,2.91,8.91,10.1,4,10,7.2,13.55,1.12,19.43-7.42,7.15-11.44,9.38-17.77,15.48-3.74,3.62-10.23,10.79-18.83,19.53-3.14,3.18-5.5,4.77-7.65,4.77-2.34,0-4.45-1.88-7.06-5.64-2.16-3.34-2.88-6.27-1.27-10.53,2.34-6.33-.2-10-7-21.53-5.32-8.77-7.79-13.47-12.91-13.47a7.75,7.75,0,0,0-.82,0c-.71,0-1.35.08-1.94.08-2.62,0-4.32-.68-6.88-4.23-4.34-6.06-3.35-10,3.91-17,5-4.82,12.85-11.35,18.47-16.93,7.5-7.38,8.61-9.36,13.6-13.87,2.55-2.33,4.49-3.4,6.53-3.4m0-1.18c-2.29,0-4.48,1.11-7.33,3.71-2.66,2.41-4.23,4.1-6.22,6.25-1.73,1.86-3.88,4.18-7.4,7.65-3.09,3.06-6.84,6.4-10.47,9.63-3,2.63-5.75,5.12-8,7.29-7.77,7.5-8.75,12-4,18.57,2.87,4,5,4.72,7.84,4.72.66,0,1.36,0,2-.08a6.58,6.58,0,0,1,.74,0c4.12,0,6.38,3.75,10.88,11.23l1,1.67,1,1.61c6,10,8,13.41,6,18.9-1.6,4.24-1.2,7.59,1.39,11.58,3,4.4,5.37,6.18,8,6.18,2.41,0,5-1.53,8.49-5.12,4.25-4.32,8.06-8.34,11.12-11.56,3.25-3.43,5.81-6.14,7.69-8,3-2.9,5.47-4.9,8.07-7,2.85-2.31,5.8-4.71,9.69-8.47,5.66-5.45,3.92-9.5,1-16.2-.57-1.33-1.21-2.84-1.87-4.5-2.94-7.4-6.12-10.85-10-10.85-2.36,0-4.93,1.29-8.09,4.05s-3.17,4.32-2.61,7.64c.07.45.16,1,.24,1.51,1.19,7.36-.54,10.39-6.71,16.34-2.29,2.21-3.94,3.23-5.2,3.23s-2.64-1.18-4.32-3.83c-3.41-5.47-3.71-6.82-1.87-8.49a2.87,2.87,0,0,1,1.95-.85,5.25,5.25,0,0,1,2.69,1A8,8,0,0,0,57,188.22a6,6,0,0,0,4.09-1.89,10.6,10.6,0,0,0,3.8-8c0-4.5-3-9.51-8.94-14.88-2.4-2.11-4.51-3.09-6.65-3.09A8.18,8.18,0,0,0,43.6,163c-3,2.86-2.51,5.21-1.72,7.56.14.41.28.78.41,1.12.78,2.1.88,2.37-.41,3.53-.8.68-1.23.79-1.42.79-.75,0-1.75-2-2.73-4h0l0,0c-3-5.63-3.44-6.49,1.07-10.84,3.82-3.69,5.46-4.92,7.7-4.92a14.45,14.45,0,0,1,4.09.82,22.44,22.44,0,0,0,6.25,1.22c3.58,0,5.77-2.09,8.55-5.94,5.56-8.1,1.46-11.55-8.32-18.59-4.49-3.21-7.11-4.74-9.86-4.74Z"/><path class="cls-4" d="M98.88,181.24c-3,0-5.31-1.62-7.33-5.09A12.51,12.51,0,0,1,91.32,164c3.13-6,.71-13.16-.48-16-.74-1.74-1.37-1.94-1.78-1.94a2.76,2.76,0,0,0-1.39.54l-2,1.28a4.88,4.88,0,0,1-2.65.82c-1.32,0-3.75-.64-5.17-4.93-2.51-8.13-.93-19,6.94-24a12.26,12.26,0,0,1,6.52-2.28,8.29,8.29,0,0,1,4,1.06,16.15,16.15,0,0,1,2.52,1.72,4.35,4.35,0,0,0,1.73,1,.38.38,0,0,0,.22-.07c1-.64,1.23-2,1.58-4.07.16-.93.34-2,.62-3.19,1.22-5.13,4.13-9,9.15-12.23a14,14,0,0,1,7.54-2.56,11,11,0,0,1,5.38,1.47,20.21,20.21,0,0,1,2.11,1.54c.68.55,1.21,1,1.62,1a.93.93,0,0,0,.5-.18c.94-.6,1.11-1.57,1.48-3.69.19-1.1.43-2.47.86-4.18.94-3.16,2.74-7.22,8.45-10.88a19.87,19.87,0,0,1,10.56-3.42,13.85,13.85,0,0,1,11.95,6.71c3.52,5.5,3.21,12,3,17.2,0,.67-.07,1.33-.09,2-.11,4.24,0,6.69,1.07,8.32a2.29,2.29,0,0,0,1.84,1.2,2.48,2.48,0,0,0,1.3-.43,6.38,6.38,0,0,0,1.69-1.55,5.63,5.63,0,0,1,1.47-1.37,2.79,2.79,0,0,1,1.55-.5c1.49,0,2.54,1.37,3.2,2.4,4.64,7.25,3,18.87-7.78,25.77a18.27,18.27,0,0,1-9.76,3.25c-4.44,0-8.38-2.33-11.09-6.57-3.33-5.2-3.36-10.79-3.39-15.72,0-3.47-.08-6.81-1.88-9.63a2.86,2.86,0,0,0-2.43-1.49,3.83,3.83,0,0,0-2,.67,4.93,4.93,0,0,0-2.07,2.73c-.84,2.78,0,6.81.81,10.36a22,22,0,0,0,6.89,12,15.55,15.55,0,0,1,3.25,4c3.43,5.79,3.36,10.48-7.19,17.23-5.19,3.32-8.74,4.8-11.51,4.8-3.61,0-5.64-2.56-7.3-5.33-2.31-4-2.29-7.61-2.28-11.39.4-6.65.12-11.92-2.58-16.13a3.22,3.22,0,0,0-2.61-1.8,3.9,3.9,0,0,0-2,.7,5.24,5.24,0,0,0-2.16,3.14c-1.23,3.57-.29,8.75.16,10.82a24.12,24.12,0,0,0,2.77,6.87,22.65,22.65,0,0,0,3.25,3.85,19.83,19.83,0,0,1,3.29,4c4.35,7.22,1.76,12.94-8.91,19.77C105.05,179.83,101.63,181.24,98.88,181.24Z"/><path class="cls-2" d="M149.62,81.47a13.35,13.35,0,0,1,11.46,6.44c3.86,6,3,13.3,2.77,18.83-.11,4.45.05,6.92,1.16,8.66a2.83,2.83,0,0,0,2.34,1.47,3,3,0,0,0,1.62-.53c1.83-1.17,1.78-2,3.15-2.92a2.29,2.29,0,0,1,1.24-.4c1.06,0,1.93.93,2.7,2.13,4.15,6.49,3.27,18-7.6,24.95a17.67,17.67,0,0,1-9.44,3.16c-4.39,0-8.05-2.32-10.6-6.3-3.21-5-3.26-10.53-3.29-15.41,0-3.37,0-6.92-2-9.93a3.41,3.41,0,0,0-2.92-1.77,4.47,4.47,0,0,0-2.35.76,5.58,5.58,0,0,0-2.32,3c-.86,2.87-.1,6.89.79,10.69a24.09,24.09,0,0,0,4.37,9.44c2.26,2.94,4.14,3.66,5.83,6.7,3.21,5.42,3.52,9.73-7,16.45-5.06,3.24-8.54,4.71-11.19,4.71-2.94,0-4.86-1.81-6.79-5-2.16-3.77-2.22-7.08-2.2-11.08.39-6.43.19-12-2.67-16.45A3.74,3.74,0,0,0,113.6,127a4.33,4.33,0,0,0-2.34.8,5.76,5.76,0,0,0-2.42,3.47c-1.08,3.14-.59,7.72.16,11.11a24.64,24.64,0,0,0,2.84,7.06c2.17,3.38,4.64,4.63,6.54,7.79,4.08,6.79,1.87,12.19-8.72,19-4.49,2.87-8,4.46-10.78,4.46s-4.91-1.51-6.82-4.79a12,12,0,0,1-.2-11.59c2.71-5.22,1.54-11.68-.48-16.44-.67-1.57-1.39-2.3-2.32-2.3a3.34,3.34,0,0,0-1.71.63l-2,1.29a4.38,4.38,0,0,1-2.33.72c-1.7,0-3.5-1.17-4.61-4.52-2.52-8.17-.7-18.61,6.7-23.35a11.77,11.77,0,0,1,6.2-2.18,7.58,7.58,0,0,1,3.72,1c2.16,1.14,3.46,2.84,4.53,2.84a1,1,0,0,0,.54-.16c1.73-1.11,1.51-3.67,2.46-7.63,1-4.4,3.4-8.36,8.88-11.87a13.47,13.47,0,0,1,7.23-2.46,10.46,10.46,0,0,1,5.1,1.4c2,1.27,3,2.59,4,2.59a1.48,1.48,0,0,0,.82-.27c1.74-1.11,1.32-3.17,2.59-8.23.9-3,2.63-7,8.2-10.52a19.11,19.11,0,0,1,10.24-3.33m0-1.18a20.51,20.51,0,0,0-10.87,3.51c-5.88,3.76-7.74,8-8.7,11.19V95c-.43,1.73-.68,3.11-.87,4.22-.38,2.15-.53,2.86-1.22,3.3a.5.5,0,0,1-.18.08,4.53,4.53,0,0,1-1.25-.85,20.43,20.43,0,0,0-2.14-1.56l0,0h0a11.63,11.63,0,0,0-5.67-1.55,14.61,14.61,0,0,0-7.86,2.65c-5.16,3.3-8.15,7.3-9.4,12.59-.29,1.21-.47,2.29-.63,3.23-.35,2-.56,3.14-1.27,3.64a7.34,7.34,0,0,1-1.31-.91,17.4,17.4,0,0,0-2.62-1.79,8.81,8.81,0,0,0-4.27-1.12,12.8,12.8,0,0,0-6.83,2.37,17.92,17.92,0,0,0-7.58,11.09,25.46,25.46,0,0,0,.39,13.6c1.54,4.66,4.25,5.35,5.73,5.35a5.58,5.58,0,0,0,3-.91l2-1.29a2.24,2.24,0,0,1,1.07-.44c.49,0,1,1,1.24,1.59,1.15,2.71,3.51,9.67.51,15.42a13.27,13.27,0,0,0,.21,12.7c2.16,3.7,4.65,5.41,7.86,5.41,2.91,0,6.32-1.39,11.41-4.65,11-7.05,13.65-13,9.1-20.57a20.84,20.84,0,0,0-3.38-4.08,21.07,21.07,0,0,1-3.17-3.75,23.18,23.18,0,0,1-2.7-6.71c-.92-4.17-1-8.08-.18-10.44v-.07a4.64,4.64,0,0,1,1.91-2.79,3.3,3.3,0,0,1,1.71-.61c.28,0,1.14,0,2.12,1.53,2.61,4.08,2.88,9.24,2.48,15.74v.06c0,3.69,0,7.51,2.35,11.68,1.68,2.8,3.91,5.64,7.82,5.64,2.89,0,6.53-1.51,11.83-4.9,11-7,11-11.92,7.37-18a15.64,15.64,0,0,0-3.35-4.06A21.66,21.66,0,0,1,137.5,124c-.87-3.7-1.57-7.49-.82-10a4.34,4.34,0,0,1,1.83-2.4,3.24,3.24,0,0,1,1.72-.58,2.28,2.28,0,0,1,1.93,1.22c1.71,2.68,1.83,5.92,1.79,9.29,0,5,.07,10.72,3.48,16,2.83,4.42,6.94,6.85,11.59,6.85a18.76,18.76,0,0,0,10.08-3.35c6.63-4.24,9.07-9.61,9.94-13.37a17.27,17.27,0,0,0-2-13.2c-.73-1.15-1.92-2.68-3.69-2.68a3.46,3.46,0,0,0-1.87.59,6,6,0,0,0-1.6,1.5,6,6,0,0,1-1.56,1.42,1.9,1.9,0,0,1-1,.34,1.73,1.73,0,0,1-1.34-.93c-1-1.5-1.08-3.87-1-8,0-.62.06-1.28.09-2,.25-5.29.57-11.88-3.05-17.53a14.42,14.42,0,0,0-12.45-7Z"/><path class="cls-4" d="M217.15,116.52c-6.42,0-11.33-4-13.49-10.86-1.86-6.06-1.31-13.41,1.63-21.85,1-2.51.62-3.32.49-3.52a.63.63,0,0,0-.58-.24,2.75,2.75,0,0,0-1,.22c-.38.14-.71.23-1,.33s-.59.17-.93.3a5.25,5.25,0,0,1-1.83.36c-2.58,0-4.21-2.35-4.36-6.28-.05-8.72,9.69-19,18.11-22.1a17.52,17.52,0,0,1,6-1.17c4.89,0,8.38,2.86,9.56,7.83,1.35,4,.27,7.38-1.1,11.71a54.48,54.48,0,0,0-2.41,9.89c-.57,4.2-.81,5.94,0,8.06.18.48.49,1,1,1h.16a5.07,5.07,0,0,0,2.2-1.1,5.7,5.7,0,0,1,1.39-.85,3.36,3.36,0,0,1,1.18-.22c2.38,0,3.5,3,3.86,3.94a16.85,16.85,0,0,1-.64,12.95c-1.55,3.35-4.88,7.87-11.93,10.39A18.09,18.09,0,0,1,217.15,116.52ZM209,52c-3.93,0-6.57-1.81-7.85-5.4-2.17-6.07,2-14.82,14-19.1a19.7,19.7,0,0,1,6.55-1.33,8,8,0,0,1,8.13,5.7,11.5,11.5,0,0,1-.14,9c-1.84,3.89-6.24,7.11-13.08,9.57A23.6,23.6,0,0,1,209,52Z"/><path class="cls-2" d="M221.67,26.73A7.42,7.42,0,0,1,229.24,32c2.47,6.84-.3,13.33-12.86,17.84a23,23,0,0,1-7.36,1.5c-3.57,0-6.05-1.53-7.29-5-2-5.72,2.05-14.22,13.59-18.35a19.11,19.11,0,0,1,6.35-1.29M220.14,52.3c4.61,0,7.85,2.59,9,7.38,2.17,6.37-2.2,11.38-3.52,21.38-.59,4.28-.83,6.11,0,8.35.36,1,.89,1.43,1.51,1.43l.29,0c1.74-.31,2.55-1.54,3.67-2a2.76,2.76,0,0,1,1-.2c1.56,0,2.57,1.61,3.31,3.56,2.88,7.61-.58,18.42-12.22,22.59a17.62,17.62,0,0,1-6,1.13c-6,0-10.81-3.67-12.93-10.44-2-6.55-.93-14.14,1.63-21.49,1.22-3.15.73-4.54-.65-4.54a3.47,3.47,0,0,0-1.2.26c-.71.27-1.26.36-2,.62a4.46,4.46,0,0,1-1.62.33c-2.34,0-3.64-2.32-3.77-5.71,0-8.1,9.06-18.38,17.72-21.53a17.14,17.14,0,0,1,5.78-1.13m1.53-26.75h0a20.09,20.09,0,0,0-6.75,1.37c-12.32,4.4-16.57,13.51-14.3,19.85,1.37,3.84,4.19,5.79,8.4,5.79A24.16,24.16,0,0,0,216.77,51c7-2.52,11.52-5.84,13.42-9.88a12,12,0,0,0,.16-9.48,8.58,8.58,0,0,0-8.68-6.09Zm-1.53,25.57a18.14,18.14,0,0,0-6.18,1.2C205.36,55.45,195.41,66,195.46,75c.16,4.26,2.06,6.88,4.95,6.88a6,6,0,0,0,2-.4c.31-.12.59-.2.89-.29s.67-.19,1.07-.34a2.32,2.32,0,0,1,.79-.18.24.24,0,0,1,.13,0s.3.63-.58,2.92c-3,8.6-3.55,16.07-1.66,22.25,2.25,7.17,7.37,11.28,14.06,11.28a18.72,18.72,0,0,0,6.41-1.2,21,21,0,0,0,12.27-10.71,17.43,17.43,0,0,0,.65-13.4c-.4-1.07-1.63-4.32-4.41-4.32a4.11,4.11,0,0,0-1.39.26,6.31,6.31,0,0,0-1.53.93,4.56,4.56,0,0,1-1.92,1h0c-.08,0-.27-.18-.45-.67-.71-1.89-.56-3.37.05-7.76a53.74,53.74,0,0,1,2.38-9.8c1.34-4.24,2.5-7.91,1.1-12.08-1.26-5.23-4.95-8.23-10.12-8.23Z"/><path class="cls-4" d="M249.42,103.54c-5.33,0-8.3-2.43-9.33-7.65-.83-4.35.29-8,3.53-11.39,4.77-4.65,5-11.33,4.71-14.9-.12-2.88-1-2.88-1.47-2.88a3,3,0,0,0-.73.1c-.36.08-.73.2-1.11.32s-.8.25-1.18.34a6.17,6.17,0,0,1-1.5.19,4.2,4.2,0,0,1-3.07-1.2c-1.08-1.1-1.61-2.88-1.57-5.29.27-9.14,6.57-19.75,15.54-21a20.18,20.18,0,0,1,2.22-.14,8.87,8.87,0,0,1,6.91,2.78,19,19,0,0,1,1.56,2.21c.57.9,1.12,1.76,1.56,1.76l.11,0c1.33-.32,2.19-1.7,3.49-3.8.39-.62.81-1.28,1.28-2a20.41,20.41,0,0,1,12.56-8.8,24.15,24.15,0,0,1,5.58-.7c7.54,0,13.06,4.19,14.77,11.21,1.53,6.3-.74,12.12-2.73,17.25l-.68,1.78c-1.51,4.05-1.93,6.31-1.51,8.06.22.88.74,1.94,2.05,1.94a2.91,2.91,0,0,0,.69-.09,6.58,6.58,0,0,0,1.93-.91,6.93,6.93,0,0,1,2-.93,3.1,3.1,0,0,1,.73-.09c1.05,0,2.46.61,3.17,3.54a16.71,16.71,0,0,1-2.24,12.56c-1.94,3.16-5.81,7.3-13.2,9.1a21.13,21.13,0,0,1-5,.64c-6.53,0-11.17-3.72-12.75-10.21-1.48-6.08,0-11.2,1.27-15.73l.18-.66c1.1-3.39,1.86-6.27.94-10.09a2.58,2.58,0,0,0-2.54-2,2.25,2.25,0,0,0-.58.07c-2.17.53-3.25,1.42-4.46,3.67a26.79,26.79,0,0,0-2.41,8.86,22.61,22.61,0,0,0,.38,7.86,18.13,18.13,0,0,0,1.77,4.55,18.12,18.12,0,0,1,1.91,5.08c1.7,8-2.59,12.48-14.83,15.45A34.48,34.48,0,0,1,249.42,103.54Z"/><path class="cls-2" d="M288.51,32.11c7.44,0,12.61,4.24,14.19,10.76,1.67,6.85-1.35,13.28-3.38,18.68-1.56,4.17-2,6.51-1.53,8.41a2.7,2.7,0,0,0,2.62,2.39,3.58,3.58,0,0,0,.83-.11c1.58-.38,2.54-1.51,3.91-1.84a2.49,2.49,0,0,1,.59-.07c1.33,0,2.15,1.24,2.6,3.09,1.79,7.38-2.57,17.93-15,21a21.12,21.12,0,0,1-4.89.62c-6.68,0-10.78-4-12.18-9.76-1.51-6.22.13-11.42,1.45-16.09,1-3.15,1.94-6.27.94-10.39a3.17,3.17,0,0,0-3.11-2.5,2.82,2.82,0,0,0-.71.09c-2.32.56-3.54,1.52-4.85,4a27.56,27.56,0,0,0-2.48,9.09,23.31,23.31,0,0,0,.4,8c.81,3.82,3,5.75,3.67,9.6,1.58,7.43-2.16,11.79-14.39,14.76a33.71,33.71,0,0,1-7.78,1.15c-4.79,0-7.72-2-8.75-7.18-.81-4.26.37-7.67,3.39-10.86,4.42-4.31,5.25-10.54,4.87-15.36-.1-2.32-.69-3.42-2.06-3.42a4.14,4.14,0,0,0-.87.11c-.74.18-1.55.49-2.29.67a5.63,5.63,0,0,1-1.36.17c-2.08,0-4.12-1.3-4.05-5.89.28-9.44,6.71-19.26,15-20.39a18.67,18.67,0,0,1,2.14-.13A8.29,8.29,0,0,1,262,43.28c1.62,1.91,2.33,4.14,3.54,4.14a1.09,1.09,0,0,0,.25,0c2-.48,3-2.84,5.12-6a19.74,19.74,0,0,1,12.21-8.54,22.9,22.9,0,0,1,5.44-.69m0-1.18a24.28,24.28,0,0,0-5.72.72,21,21,0,0,0-12.89,9c-.5.75-.93,1.43-1.31,2-1.2,1.94-2,3.23-3.07,3.52a6.88,6.88,0,0,1-1.09-1.47,19,19,0,0,0-1.58-2.23l0,0,0,0a9.51,9.51,0,0,0-7.33-3,21.22,21.22,0,0,0-2.28.14c-9.28,1.26-15.79,12.15-16.07,21.53,0,2.59.54,4.51,1.74,5.72a4.77,4.77,0,0,0,3.49,1.38,7.28,7.28,0,0,0,1.64-.2c.4-.1.82-.23,1.22-.36s.74-.23,1.07-.31a2.29,2.29,0,0,1,.59-.08c.27,0,.78,0,.88,2.29.28,3.51.07,10-4.51,14.46-3.42,3.61-4.59,7.39-3.72,11.93,1.08,5.48,4.32,8.14,9.9,8.14a35.23,35.23,0,0,0,8.06-1.18c12.46-3,17-7.86,15.26-16.16a18.43,18.43,0,0,0-2-5.2,17.47,17.47,0,0,1-1.72-4.4,22.12,22.12,0,0,1-.37-7.68,26,26,0,0,1,2.36-8.68c1.12-2.1,2-2.86,4.06-3.35a2.12,2.12,0,0,1,.44,0,2,2,0,0,1,2,1.6c.89,3.67.15,6.47-.91,9.75l-.2.7c-1.31,4.59-2.79,9.8-1.27,16,1.64,6.77,6.5,10.66,13.32,10.66a21.86,21.86,0,0,0,5.16-.66c7.59-1.84,11.56-6.11,13.57-9.36a17.29,17.29,0,0,0,2.3-13c-.8-3.3-2.48-4-3.74-4a3.84,3.84,0,0,0-.87.11,7.28,7.28,0,0,0-2.14,1,6.46,6.46,0,0,1-1.76.84,2.32,2.32,0,0,1-.56.07c-.28,0-1.12,0-1.48-1.49s0-3.78,1.49-7.72l.68-1.76c2-5.22,4.32-11.13,2.75-17.61-1.75-7.19-7.63-11.66-15.34-11.66Z"/><path class="cls-4" d="M367.32,84.47c-7.59,0-12.46-.56-14.88-3.42-1.49-1.75-1.93-4.31-1.35-7.81.8-3.95,1.85-7.38,6.58-9.55,3.46-1.81,5.71-3.28,7.85-10.3,1.64-5.51,4.31-15.85,5.6-20.83l.41-1.59c.45-1.6.46-2.65,0-3.22s-1.48-.85-3.36-.85h-.39c-3.4.06-4,1.45-5.7,5.56l-.48,1.14c-2.08,4.71-5.07,6.94-9.42,7h-.33c-6.72,0-10.95-3.4-11-8.86,0-2.52.92-5.39,2.6-9.5,6.1-15,8.93-17.21,16.19-17.33h.46a29.14,29.14,0,0,1,7.07,1,26.77,26.77,0,0,0,6.43.88H374c2.81,0,7.07-.15,11.64-.25,5.31-.12,11-.25,15.47-.32a39.28,39.28,0,0,0,7.21-.94,32.2,32.2,0,0,1,5.88-.8h.45c6.11,0,9.39,2.32,11.57,15.49a58.76,58.76,0,0,1,1,9c.07,4.26-.77,7.36-2.57,9.48s-4.89,3.39-9.08,3.46h-.22c-5,0-7.87-2.86-9.08-9l-.08-.47c-.91-5.24-1.14-5.91-4-5.91H402c-4.25.07-4.66.51-6.26,6.72l-.22.8c-2.18,7.92-4.43,16.11-6,23.15-.87,3.86-.09,5.09,2.69,6.81,3.91,2.47,5.11,5.11,4.44,9.73-1,8.64-5,10.45-23.61,10.77C371,84.44,369.08,84.47,367.32,84.47Z"/><path class="cls-2" d="M414.62,5c5.79,0,8.86,2.12,11,15a58,58,0,0,1,1,8.87c.14,7.92-2.94,12.2-11.07,12.34h-.21c-5.06,0-7.45-3.2-8.5-8.53s-1.09-6.86-4.65-6.86H402c-4.66.08-5.19.85-6.82,7.17-2.25,8.17-4.6,16.67-6.21,24-.91,4-.12,5.54,2.94,7.44,3.51,2.22,4.85,4.47,4.17,9.15-.94,8.15-4.38,9.94-23,10.26-2,0-3.92.06-5.69.06-11.3,0-17.17-1.23-15.64-10.55.8-3.92,1.83-7.08,6.24-9.11,3.66-1.9,6-3.57,8.17-10.66,1.85-6.21,5-18.52,6-22.44s-.3-4.81-3.91-4.81h-.4c-4.12.07-4.62,2.14-6.71,7.06-1.88,4.26-4.55,6.58-8.89,6.65h-.32c-5.61,0-10.35-2.54-10.45-8.28,0-2.5,1-5.44,2.55-9.27,6.25-15.39,8.94-16.85,15.66-17h.45c5.61,0,8.17,1.83,13.5,1.83h.4c6.07-.1,18.86-.42,27.11-.56,5.2-.09,9-1.67,13.09-1.74h.44m0-1.18h-.46a32.82,32.82,0,0,0-6,.81,39.52,39.52,0,0,1-7.11.93c-4.44.07-10.32.2-15.51.32-4.56.1-8.8.2-11.6.25h-.38a25.89,25.89,0,0,1-6.3-.87,30,30,0,0,0-7.2-1h-.47c-7.56.12-10.5,2.34-16.73,17.7-1.7,4.18-2.68,7.11-2.64,9.73.1,5.82,4.56,9.44,11.63,9.44h.34c4.6-.07,7.77-2.41,10-7.36l.48-1.15c1.78-4.25,2.26-5.15,5.17-5.2h.38c1.61,0,2.58.2,2.89.61s.37,1-.11,2.7l-.42,1.63c-1.29,5-4,15.3-5.6,20.8-2.06,6.76-4.21,8.19-7.56,9.93-4.94,2.29-6.07,6-6.88,9.93-.61,3.74-.13,6.45,1.48,8.34,2.57,3,7.57,3.63,15.32,3.63,1.75,0,3.62,0,5.71-.07,18-.3,23.07-1.74,24.18-11.3.71-4.86-.56-7.66-4.71-10.28-2.59-1.61-3.22-2.61-2.42-6.18,1.56-7,3.81-15.22,6-23.14l.22-.77c1.6-6.23,1.91-6.24,5.7-6.3h.22c2.37,0,2.5.2,3.41,5.42l.08.46c1.26,6.41,4.42,9.51,9.66,9.51h.23C424,42.27,428,37.84,427.8,28.87a60,60,0,0,0-1-9c-2.23-13.5-5.84-16-12.15-16Z"/><path class="cls-4" d="M448.75,88.69a42.56,42.56,0,0,1-5.53-.37c-10.92-1.43-18.63-5.78-22.31-12.59-3.94-7.31-3.16-17.1,2.27-28.33,6.95-14.25,17.14-21.48,30.3-21.48a40.43,40.43,0,0,1,5.29.36c11.31,1.48,18.93,5.51,22.67,12s3.42,15.25-1,25.92C473.51,80.68,463.15,88.69,448.75,88.69Zm5.09-44.09c-6.42,0-9.9,8.37-10.93,15.53-.47,3-.21,5.17.8,6.52a4.78,4.78,0,0,0,3.43,1.74,7.13,7.13,0,0,0,1,.07c5.58,0,10-6.2,11.26-15.8.54-5.11-.83-7.5-4.6-8A6.59,6.59,0,0,0,453.84,44.6Z"/><path class="cls-2" d="M453.48,26.51a41.1,41.1,0,0,1,5.22.35c22.36,2.93,29.94,16.06,21.17,37.11-6.66,15.9-16.75,24.13-31.12,24.13a41.37,41.37,0,0,1-5.45-.37c-23-3-29.94-18.68-19.59-40.07,7-14.35,16.94-21.15,29.77-21.15m-5.31,42.54c6,0,10.57-6.58,11.84-16.31.49-4.53-.37-8-5.1-8.66a9.77,9.77,0,0,0-1.07-.07c-6.55,0-10.39,8.19-11.52,16-.72,4.71.12,8.32,4.74,8.93a8.38,8.38,0,0,0,1.11.07m5.31-43.72h0c-13.4,0-23.77,7.34-30.83,21.81-5.52,11.41-6.3,21.39-2.26,28.87,3.77,7,11.64,11.44,22.75,12.89a42,42,0,0,0,5.61.38c14.66,0,25.2-8.13,32.21-24.85,4.52-10.86,4.85-19.75,1-26.45s-11.61-10.78-23.1-12.29a41.75,41.75,0,0,0-5.37-.36Zm-5.31,42.54a7.73,7.73,0,0,1-1-.06,4.26,4.26,0,0,1-3-1.52c-.91-1.21-1.13-3.19-.69-6.06,1.08-7.49,4.7-15,10.35-15a7.22,7.22,0,0,1,.92.06c3.41.45,4.59,2.58,4.08,7.36-1.21,9.26-5.4,15.26-10.67,15.26Z"/><path class="cls-4" d="M486.58,113.93a36.44,36.44,0,0,1-9.67-1.42,21.08,21.08,0,0,1-10.72-6.39,12,12,0,0,1-2.41-11.18c1.89-6.92,7.06-11.23,13.5-11.23a15.39,15.39,0,0,1,3.64.46c3.11.7,5.33,2.11,6.61,4.17a9.76,9.76,0,0,1,.88,7.34,9.23,9.23,0,0,1-1.15,2.78,5.32,5.32,0,0,0-.74,1.67c-.38,1.42,1,1.91,1.43,2a3.58,3.58,0,0,0,.95.12c3.27,0,7.72-3.66,8.66-7.12.45-1.65,0-2.75-3.53-6-5.38-4.75-4.48-9.8-2.29-22L492,65.7c.27-1.55.61-3,.95-4.43.86-3.62,1.66-7,.81-10.82l-.08-.29c-.71-2.86-1-4.16.79-7.48,2.46-4.29,5.18-6,9.38-6,3.56,0,8.21,1.27,14.64,3s9.36,3.37,10.4,5.63c.7,1.53.49,3.35-.65,5.74a12,12,0,0,1-5.52,6c-2.75,1.64-2.84,2-4.4,7.52-.34,1.25-.76,2.74-1.3,4.56C514.92,76,514.14,79,514.71,80c.11.19.3.4.93.58a2.31,2.31,0,0,0,.61.09c1.08,0,2.23-1,5-3.45,1.29-1.13,2.88-2.54,5-4.29,2.43-2.16,4.36-4,5.06-6.59.44-1.63.2-3-.91-5.11-1.12-2.28-1.84-4.32-.15-8.3,2.2-5,6-7.57,11.12-7.57a17.81,17.81,0,0,1,4.74.69c3.9,1.06,6.57,3,7.93,5.71a11.21,11.21,0,0,1,.49,8.1c-2,7.29-8.73,13.42-18,21.28-5.5,4.47-10.2,8.68-14.76,12.75-3.49,3.12-6.78,6.07-10,8.72C502.09,110.55,494.58,113.93,486.58,113.93Z"/><path class="cls-2" d="M503.85,37.23c3.48,0,8,1.24,14.48,3,9.63,2.63,12,5.07,9.38,10.54a11.44,11.44,0,0,1-5.28,5.76c-3.62,2.16-3,2.54-6,12.42s-3.28,11.59-1,12.21a2.65,2.65,0,0,0,.77.11c1.88,0,3.53-2.18,10.34-7.87,2.53-2.23,4.51-4.16,5.26-6.88.51-1.89.15-3.45-1-5.55s-1.71-4.06-.13-7.79c2-4.6,5.64-7.21,10.58-7.21a17.39,17.39,0,0,1,4.59.67c8.05,2.19,9.43,7.85,8,13.09-2,7.32-9.1,13.59-17.86,21-9.83,8-17.49,15.46-24.75,21.47-9.38,7.74-16.7,11.16-24.74,11.16a36,36,0,0,1-9.51-1.4c-8.58-2.34-15-8.58-12.72-16.85,1.79-6.54,6.73-10.79,12.93-10.79a14.4,14.4,0,0,1,3.5.44c7.52,1.71,7.92,7.22,7.06,10.8-.77,2.83-1.31,2.34-1.88,4.44-.38,1.36.47,2.37,1.83,2.75a4.44,4.44,0,0,0,1.11.14c3.52,0,8.2-3.78,9.23-7.55.54-2-.11-3.29-3.7-6.63-5.34-4.72-4.21-9.7-1.85-22.88,1-5.59,3-10.09,1.75-15.49-.75-3-1.12-4.13.66-7.35,2.38-4.17,4.94-5.74,8.86-5.74m0-1.18c-4.39,0-7.34,1.89-9.89,6.33-1.95,3.54-1.58,5-.85,7.92l.08.31c.82,3.62.06,6.82-.82,10.52-.33,1.43-.68,2.91-.95,4.48L491.16,67c-2.23,12.42-3.15,17.56,2.49,22.54C497.33,93,497.33,93.79,497,95c-.88,3.24-5,6.68-8.09,6.68a3.3,3.3,0,0,1-.8-.1,1.68,1.68,0,0,1-.92-.55.82.82,0,0,1-.09-.75,4.57,4.57,0,0,1,.67-1.52A9.64,9.64,0,0,0,489,95.85,10.41,10.41,0,0,0,488,88c-1.37-2.2-3.72-3.7-7-4.44a15.68,15.68,0,0,0-3.76-.47c-6.71,0-12.1,4.47-14.06,11.66a12.51,12.51,0,0,0,2.52,11.71,21.64,21.64,0,0,0,11,6.59,37.15,37.15,0,0,0,9.82,1.44c8.14,0,15.77-3.42,25.49-11.43,3.22-2.66,6.52-5.61,10-8.74,4.55-4.06,9.25-8.27,14.73-12.73C546.23,73.68,553,67.49,555.07,60a11.86,11.86,0,0,0-.53-8.52c-1.44-2.89-4.24-4.91-8.3-6a18.6,18.6,0,0,0-4.9-.71c-5.25,0-9.39,2.81-11.65,7.91-1.79,4.22-1,6.48.14,8.79,1.06,2,1.28,3.23.88,4.72-.66,2.41-2.53,4.21-4.9,6.31-2.07,1.73-3.67,3.14-5,4.27-2.49,2.2-3.74,3.31-4.6,3.31a2.24,2.24,0,0,1-.46-.07c-.47-.13-.54-.25-.56-.29-.55-1,1-6,2.35-10.44.54-1.84,1-3.36,1.31-4.58,1.53-5.45,1.59-5.66,4.14-7.18a12.57,12.57,0,0,0,5.74-6.25c1.22-2.56,1.43-4.54.65-6.24-1.13-2.48-4.15-4.15-10.78-6-6.47-1.76-11.15-3-14.79-3Z"/><path class="cls-4" d="M557.35,116a22.31,22.31,0,0,1-8.21-1.58,16.42,16.42,0,0,1-8.91-7.76c-1.86-3.76-1.9-8.17-.1-12.73,3.08-7.83,8.21-12.14,14.15-17.12,4-3.22,15.38-13.37,17-14.84,1-1,1.52-2,1.39-2.58-.08-.37-.41-.67-1-.89a7,7,0,0,0-1.05-.31,8.13,8.13,0,0,1-1.35-.4,3.6,3.6,0,0,1-2.22-2.38c-.34-1.19-.27-3.26,2-6.32,3.57-4.56,9.3-7.16,15.73-7.16a24.35,24.35,0,0,1,8.94,1.71c5.77,2.28,9.43,6.05,10.3,10.62.94,4.95-1.4,10.34-6.59,15.18-1.37,1.22-3.07,2.56-5,4.12-2.49,2-5.59,4.4-9.09,7.47-7.17,6.34-14,12.66-15.29,15.95a1.75,1.75,0,0,0,1,2.33,4.5,4.5,0,0,0,1.76.29h.94a4.4,4.4,0,0,1,1.64.26,3.23,3.23,0,0,1,2,2.28,5.67,5.67,0,0,1-.38,3.43C573,110.73,566.27,116,557.35,116Z"/><path class="cls-2" d="M584.82,42.5a23.88,23.88,0,0,1,8.72,1.67C605.65,48.94,607,59.72,597.07,69c-3.07,2.75-7.88,6.1-14.12,11.58-8,7.09-14.18,13-15.45,16.18a2.33,2.33,0,0,0,1.35,3.09,5,5,0,0,0,2,.33h.94a3.87,3.87,0,0,1,1.42.22c1.82.71,2.23,2.63,1.32,5-2.11,5.36-9,10.06-17.15,10.06a21.77,21.77,0,0,1-8-1.54c-7.67-3-12.36-10.34-8.67-19.73,2.94-7.47,7.54-11.48,14-16.87,4-3.23,15.41-13.41,17-14.87,1.92-1.92,2.26-3.65.24-4.45-.91-.36-1.39-.31-2.4-.71-2.12-.83-3.18-3.47,0-7.79a19.12,19.12,0,0,1,15.26-6.93m0-1.18h0c-6.62,0-12.52,2.69-16.19,7.38-2.43,3.27-2.49,5.53-2.11,6.85a4.19,4.19,0,0,0,2.58,2.77,9.6,9.6,0,0,0,1.43.43,6.36,6.36,0,0,1,1,.28c.17.07.56.24.61.46s-.15.95-1.23,2c-1.72,1.54-13,11.6-17,14.8-6,5-11.19,9.39-14.33,17.36-1.86,4.73-1.82,9.29.12,13.21a17,17,0,0,0,9.22,8,23.08,23.08,0,0,0,8.43,1.62c8.11,0,15.78-4.55,18.24-10.81A6.34,6.34,0,0,0,576,102a3.88,3.88,0,0,0-2.4-2.68,5,5,0,0,0-1.85-.3h-.94a3.86,3.86,0,0,1-1.54-.26,1.22,1.22,0,0,1-.68-.62,1.18,1.18,0,0,1,0-.94c1.25-3.19,8.35-9.74,15.14-15.73,3.47-3.06,6.57-5.49,9.06-7.45,2-1.56,3.68-2.91,5.05-4.14,5.37-5,7.77-10.58,6.79-15.73-.91-4.78-4.7-8.71-10.67-11.05a24.79,24.79,0,0,0-9.14-1.76Z"/><path class="cls-4" d="M623.18,147.19a20.63,20.63,0,0,1-9.74-2.61c-4.86-2.6-7.39-6.35-7.54-11.14,0-1,.15-1.86.25-2.61.26-2,.28-2.67-.45-3.06a1.14,1.14,0,0,0-.55-.15,4.75,4.75,0,0,0-2.06.93,21.51,21.51,0,0,1-2.41,1.31,16.82,16.82,0,0,1-6.49,1.45c-2.72,0-5.46-.82-8.89-2.65-5.16-2.77-8.09-6.63-8.71-11.49-1-7.73,4-17.31,13.78-26.3,8.75-8.06,19-12.68,28.23-12.68a24.59,24.59,0,0,1,11.73,2.87c5.54,3,8.06,5.91,8.44,9.86l0,.3c.13,2.3.21,3.83.75,4.12a2.62,2.62,0,0,0,1.19.33,4.49,4.49,0,0,0,2.13-.82,8.53,8.53,0,0,1,4.55-1.43,14.22,14.22,0,0,1,6.59,2c3.37,1.8,5.59,3,6.71,4.28s1.2,2.87,0,5.14c-1.46,2.72-3.77,4.34-8.37,7.57-2.92,2-6.93,4.86-12.29,9.07-5.4,4-6.59,5.08-7.51,6.79-.78,1.46-.61,2.07.78,2.82a7.9,7.9,0,0,0,2.06.71,7.23,7.23,0,0,1,1.78.61,2.86,2.86,0,0,1,1.57,2.5,7.72,7.72,0,0,1-1.14,3.93A16.4,16.4,0,0,1,623.18,147.19Zm-3.64-49.88c-3.17,0-6.83,2.19-10.06,6-2.66,3.15-3.9,6.38-3.41,8.86a5.58,5.58,0,0,0,3.19,3.87,6.53,6.53,0,0,0,3,.79h0c2.8,0,5.9-2.07,9.19-6.15,2.88-3.62,4.23-6.94,3.78-9.35A4.44,4.44,0,0,0,623,98.25,6.69,6.69,0,0,0,619.54,97.31Z"/><path class="cls-2" d="M618.6,78.78a24,24,0,0,1,11.45,2.8c6.22,3.32,7.83,6.28,8.14,9.39.16,2.92.21,4.43,1.07,4.89a3.08,3.08,0,0,0,1.47.4c2,0,3.32-2.25,6.68-2.25a13.61,13.61,0,0,1,6.31,2c6.69,3.58,8.61,4.6,6.46,8.62-2.31,4.3-6.91,5.77-20.5,16.46-5.5,4.07-6.69,5.15-7.66,7s-.71,2.7,1,3.62c1.53.82,2.7.7,3.85,1.32,1.53.82,1.77,2.67.18,5.63a15.74,15.74,0,0,1-13.88,8,20,20,0,0,1-9.47-2.54c-5.16-2.77-7.09-6.51-7.22-10.64.14-3.24,1.12-5.3-.51-6.17a1.75,1.75,0,0,0-.83-.22c-1.22,0-2.47,1.29-4.71,2.3a16.42,16.42,0,0,1-6.25,1.39,18.08,18.08,0,0,1-8.61-2.58c-14.73-7.88-8.65-24.07,5.19-36.83,8.07-7.44,18.22-12.53,27.83-12.53m-6.34,38.63c3.35,0,6.61-2.59,9.65-6.36,4.12-5.18,5.83-10.66,1.34-13.31a7.27,7.27,0,0,0-3.71-1c-3.69,0-7.52,2.68-10.51,6.21-4.36,5.16-5.35,10.91,0,13.63a6.94,6.94,0,0,0,3.27.85M618.6,77.6h0c-9.34,0-19.77,4.68-28.63,12.84-9.89,9.12-15,18.89-14,26.8.65,5.06,3.68,9.08,9,11.94,3.52,1.88,6.35,2.72,9.17,2.72a17.42,17.42,0,0,0,6.7-1.48,21.71,21.71,0,0,0,2.51-1.37,4.8,4.8,0,0,1,1.75-.84.54.54,0,0,1,.27.08c.37.19.39.61.15,2.46-.1.77-.22,1.63-.26,2.62v.09c.16,5,2.8,8.93,7.85,11.64a21.15,21.15,0,0,0,10,2.68,17,17,0,0,0,14.92-8.63c2.58-4.82.39-6.67-.67-7.23a7.49,7.49,0,0,0-1.93-.66,7.49,7.49,0,0,1-1.91-.66c-.54-.29-.86-.56-.92-.78s0-.47.38-1.24c.82-1.53,1.77-2.47,7.33-6.58,5.38-4.23,9.37-7,12.29-9.08,4.68-3.28,7-4.93,8.55-7.78.93-1.75,1.66-3.81-.06-5.8-1.19-1.37-3.34-2.52-6.88-4.41a14.87,14.87,0,0,0-6.87-2.1,9.09,9.09,0,0,0-4.85,1.51,4,4,0,0,1-1.83.74,2,2,0,0,1-.91-.26,12.57,12.57,0,0,1-.44-3.64l0-.27c-.4-4.22-3-7.31-8.75-10.37a25.14,25.14,0,0,0-12-2.94Zm-6.34,38.63a5.63,5.63,0,0,1-2.71-.71,5,5,0,0,1-2.9-3.46c-.46-2.31.74-5.36,3.28-8.37,3.11-3.68,6.62-5.79,9.61-5.79a6,6,0,0,1,3.11.86,3.84,3.84,0,0,1,2,2.68c.41,2.2-.93,5.44-3.66,8.87-3.17,3.93-6.11,5.92-8.73,5.92Z"/><path class="cls-4" d="M683.52,188.82a21.5,21.5,0,0,1-12.9-4.6c-7.51-5.66-9-13.06-3.87-19.81,3.76-5,8.64-7.12,13-9l.64-.27c3.31-1.31,6-2.54,8.39-5.68a2.58,2.58,0,0,0-.44-3.66,5.56,5.56,0,0,0-3.64-1.36,10.33,10.33,0,0,0-2,.24,26.58,26.58,0,0,0-8.38,3.75,22.7,22.7,0,0,0-5.84,5.28A17.75,17.75,0,0,0,666,158a18.21,18.21,0,0,1-2.72,4.69c-2.37,3-5,4.42-8,4.42-3.56,0-7.78-1.94-13.29-6.09s-8-7.34-8.41-10.57c-.27-2.26.54-4.51,2.48-6.87a11.87,11.87,0,0,1,9.75-4.54c.42,0,.86,0,1.3.05a14.39,14.39,0,0,0,1.59.09c5.91,0,10.63-3.7,12.92-5.91,1.08-1,1.61-1.73,1.58-2.29,0-.38-.28-.76-.83-1.17-.29-.22-.62-.44-1-.65s-.71-.46-1-.7a4.8,4.8,0,0,1-2.13-3.71c0-1.68,1-3.37,3.11-5a25.46,25.46,0,0,1,15-5.15c4.49,0,8.31,1.34,11,3.87,3,2.93,4.08,5.38,3.75,8.74a19.26,19.26,0,0,1-.71,2.6c-.43,1.3-.67,2.11-.29,2.4a3.43,3.43,0,0,0,2.16.57,24.82,24.82,0,0,0,3-.28c.72-.1,1.5-.2,2.35-.29s1.56-.08,2.25-.08a19.84,19.84,0,0,1,12.52,4.22c4.18,3.15,6.81,7,7.6,11.07a14.08,14.08,0,0,1-2.82,11.32c-3.9,5.18-9.84,7.12-15.07,8.84l-1.8.6c-4.1,1.4-6.11,2.51-7.19,3.94a2.65,2.65,0,0,0-.64,1.79,2.14,2.14,0,0,0,1,1.51,6.5,6.5,0,0,0,1.92.91,7.31,7.31,0,0,1,2,.94,2.59,2.59,0,0,1,1.08,2.47,6,6,0,0,1-1.28,2.74A17.21,17.21,0,0,1,683.52,188.82Z"/><path class="cls-2" d="M676.38,115.13A15.39,15.39,0,0,1,687,118.84c3.14,3,3.85,5.34,3.56,8.25-.48,2.62-1.89,4.68-.77,5.53a4,4,0,0,0,2.52.69c1.41,0,3.17-.35,5.4-.57.72-.05,1.45-.08,2.2-.08a19.17,19.17,0,0,1,12.15,4.1c8.49,6.39,9.62,15,4.67,21.57-4.25,5.63-11.13,7.37-16.59,9.23-4.21,1.44-6.3,2.59-7.47,4.15s-1,3,.42,4.12c1.3,1,2.78,1,3.9,1.85,1.39,1,1,2.65-.31,4.38a16.54,16.54,0,0,1-13.16,6.17A20.8,20.8,0,0,1,671,183.75c-7.88-5.94-8.12-13.19-3.75-19,3.85-5.11,8.9-7.14,13.35-9.08,3.09-1.21,6.08-2.49,8.63-5.86a3.18,3.18,0,0,0-.56-4.5,6.23,6.23,0,0,0-4-1.47,11.1,11.1,0,0,0-2.14.25,27.08,27.08,0,0,0-8.6,3.84,23.36,23.36,0,0,0-6,5.41c-2.43,3.06-2.57,5.94-5.09,8.93-2.21,2.76-4.63,4.21-7.6,4.21-3.42,0-7.56-1.92-12.94-6-7.79-5.87-10.71-10.65-5.82-16.6a11.33,11.33,0,0,1,9.29-4.32c.41,0,.83,0,1.26.05a15,15,0,0,0,1.63.09c5.45,0,10.16-3,13.33-6.07,2.06-1.84,2.34-3.12.7-4.36-.61-.46-1.37-.89-2-1.35-2-1.5-3.4-4.32,1-7.81a24.7,24.7,0,0,1,14.67-5m0-1.18A26,26,0,0,0,661,119.22c-2.25,1.79-3.37,3.64-3.35,5.51A5.37,5.37,0,0,0,660,128.9c.33.25.7.49,1,.72s.65.43.92.63.59.54.59.72-.07.66-1.37,1.82c-2.25,2.17-6.83,5.77-12.54,5.77a12.58,12.58,0,0,1-1.5-.09c-.5,0-1-.05-1.39-.05a12.58,12.58,0,0,0-10.2,4.74c-2.05,2.5-2.9,4.9-2.61,7.33.41,3.44,3,6.73,8.63,11s10,6.2,13.65,6.2c3.23,0,6-1.52,8.52-4.66a18.4,18.4,0,0,0,2.79-4.81,17.27,17.27,0,0,1,2.3-4.11,22.28,22.28,0,0,1,5.7-5.16,26,26,0,0,1,8.22-3.68,10,10,0,0,1,1.88-.22,5,5,0,0,1,3.28,1.24,2,2,0,0,1,.32,2.84c-2.26,3-4.9,4.21-8.11,5.47l-.67.29c-4.38,1.9-9.34,4.06-13.2,9.18a13.64,13.64,0,0,0-2.94,10.33c.58,3.76,3,7.33,6.93,10.31a22.1,22.1,0,0,0,13.26,4.72,17.83,17.83,0,0,0,14.1-6.64,6.39,6.39,0,0,0,1.4-3,3.18,3.18,0,0,0-1.32-3,7.16,7.16,0,0,0-2.13-1,6.69,6.69,0,0,1-1.77-.83,1.56,1.56,0,0,1-.71-1.09,2.06,2.06,0,0,1,.52-1.38c1-1.34,2.94-2.38,6.91-3.75l1.79-.59c5.32-1.75,11.35-3.72,15.36-9,5.61-7.46,3.64-16.79-4.9-23.22a20.34,20.34,0,0,0-12.86-4.34c-.71,0-1.46,0-2.28.08s-1.7.2-2.4.29a24.37,24.37,0,0,1-2.92.28,2.93,2.93,0,0,1-1.76-.42,6.76,6.76,0,0,1,.45-1.78,20.13,20.13,0,0,0,.72-2.63v-.1c.35-3.55-.75-6.14-3.92-9.21-2.84-2.65-6.8-4-11.44-4Z"/><path class="cls-4" d="M737,239.28a17.84,17.84,0,0,1-13-5.75c-5-5.15-5.18-10-4.63-14.43.23-1.32.49-2.36.71-3.2.42-1.64.57-2.33.16-2.75a1,1,0,0,0-.78-.34,7.69,7.69,0,0,0-2,.53,29,29,0,0,1-2.85.87,15.23,15.23,0,0,1-3.65.47c-3.66,0-6.95-1.63-10.35-5.12-4.44-4.58-6.31-9.81-5.4-15.14,1.35-7.87,8.52-15.56,19.67-21.1a50,50,0,0,1,22-5.64c8,0,14.72,2.57,19.44,7.44,3.41,3.51,4.92,7.2,4.61,11.26a16.61,16.61,0,0,1-.64,3c-.51,1.84-.77,2.92.06,3.77a2,2,0,0,0,1.51.79,7.2,7.2,0,0,0,2.09-.49c2.55-.93,4-2,4.32-3.13a2.53,2.53,0,0,0-.87-2.23l-1.27-1.31a4.46,4.46,0,0,1-1.2-3.74,6.05,6.05,0,0,1,3.19-4.13,14.88,14.88,0,0,1,7.26-1.79c5.83,0,12.13,2.9,16.84,7.76,3.36,3.46,5.23,7.33,5.41,11.18a13.54,13.54,0,0,1-4.43,10.46c-4.48,4.35-10.81,5.52-19.58,7.13l-2.38.45c-10.24,1.85-21.16,4.19-24.51,7.44-1.63,1.59-1.89,3-.75,4.15a6,6,0,0,0,2.31,1.44,6.12,6.12,0,0,1,2.24,1.38c.72.74,2,2.79-1.23,6A18,18,0,0,1,737,239.28ZM738.71,188a15.2,15.2,0,0,0-8,2.72c-3.34,2.21-5.41,4.89-5.68,7.37a5.5,5.5,0,0,0,1.76,4.55,5.8,5.8,0,0,0,4.28,1.79h0c2.28,0,4.95-1.09,8.16-3.35,3.65-2.66,5.77-5.41,6-7.72a4,4,0,0,0-1.27-3.28A7,7,0,0,0,738.71,188Z"/><path class="cls-2" d="M736.83,168.27c7.37,0,14.12,2.22,19,7.26,3.4,3.5,4.72,7.05,4.44,10.81-.28,3-2.08,5.49-.42,7.2a2.59,2.59,0,0,0,1.94,1,7.57,7.57,0,0,0,2.28-.52c4.24-1.55,6.11-3.67,3.69-6.31l-1.28-1.33c-2-2.17-1.23-5.15,1.87-6.95a14.26,14.26,0,0,1,7-1.71c5.78,0,12,3,16.42,7.58,6.65,6.85,7,15,1,20.8-4.75,4.61-11.82,5.58-21.66,7.43-10.15,1.84-21.31,4.2-24.81,7.6-1.87,1.81-2.13,3.57-.77,5,1.66,1.71,3.2,1.42,4.56,2.82s.8,3.16-1.23,5.12a17.19,17.19,0,0,1-24.45-.9c-4.53-4.67-5.08-9-4.47-14,.67-3.82,1.69-5.42.71-6.43a1.57,1.57,0,0,0-1.2-.52c-1.07,0-2.54.81-5,1.42a15,15,0,0,1-3.51.46c-3.35,0-6.48-1.41-9.93-4.95-12-12.38-2.81-26.89,14.11-35.3a49.69,49.69,0,0,1,21.76-5.58m-5.76,36.78c2.75,0,5.73-1.5,8.51-3.45,5-3.69,8.26-8.32,4.78-11.9a7.64,7.64,0,0,0-5.65-2.26,15.87,15.87,0,0,0-8.32,2.82c-5.34,3.52-8.1,8.62-4,12.82a6.44,6.44,0,0,0,4.7,2m5.76-38v0h0a50.57,50.57,0,0,0-22.29,5.7c-11.31,5.63-18.6,13.48-20,21.53-.94,5.52,1,10.93,5.56,15.65,3.51,3.62,6.94,5.3,10.77,5.3a15.72,15.72,0,0,0,3.78-.48,30.35,30.35,0,0,0,2.91-.89,7.45,7.45,0,0,1,1.84-.5.42.42,0,0,1,.36.16c.19.2,0,1.13-.31,2.19-.22.85-.49,1.91-.72,3.22V219c-.56,4.6-.37,9.58,4.79,14.91a18.39,18.39,0,0,0,26.13.93c.94-.92,3.83-4.12,1.25-6.79a6.7,6.7,0,0,0-2.45-1.52,5.35,5.35,0,0,1-2.11-1.31c-.36-.36-1.3-1.33.74-3.3,3.67-3.57,18.06-6.18,24.2-7.29l2.39-.45c8.87-1.63,15.27-2.81,19.88-7.29a14,14,0,0,0,4.6-10.91c-.18-4-2.1-8-5.56-11.56-4.83-5-11.29-7.94-17.27-7.94a15.45,15.45,0,0,0-7.53,1.86,6.65,6.65,0,0,0-3.51,4.56,5.08,5.08,0,0,0,1.33,4.21l1.32,1.36a2,2,0,0,1,.7,1.66c-.1.42-.69,1.53-4,2.72a7,7,0,0,1-1.87.45c-.27,0-.54,0-1.09-.61s-.42-1.39.09-3.21a16.42,16.42,0,0,0,.65-3.07c.33-4.26-1.23-8.09-4.77-11.73-4.83-5-11.7-7.62-19.86-7.62Zm-5.76,36.79a5.32,5.32,0,0,1-3.88-1.63,5,5,0,0,1-1.57-4.07c.25-2.3,2.22-4.83,5.42-6.94a14.78,14.78,0,0,1,7.67-2.62,6.42,6.42,0,0,1,4.8,1.9,3.46,3.46,0,0,1,1.11,2.82c-.18,2.11-2.27,4.77-5.73,7.3-3.06,2.14-5.69,3.24-7.82,3.24Z"/></svg>